<svg width="170" height="33" viewBox="0 0 170 33" fill="none" xmlns="http://www.w3.org/2000/svg">
<g clip-path="url(#clip0_626_18)">
<path d="M15.8857 15.118L17.9669 32.395L31.842 24.4476V8.55273L15.8857 15.118Z" fill="#24699E"/>
<path d="M17.9669 14.4269V32.395L4.0918 24.4476V8.55273L17.9669 14.4269Z" fill="#649ABF"/>
<path d="M4.09082 8.55281L8.94131 11.331L18.1303 8.64126L22.8155 3.38327L17.9659 0.605469L4.09082 8.55281Z" fill="#1B5E9A"/>
<path d="M13.1172 13.7221L17.9666 16.4999L31.8416 8.55258L26.9923 5.77441L17.735 8.50261L13.1172 13.7221Z" fill="#1B5E9A"/>
<path d="M13.1164 20.6335L8.94141 18.2419V11.3311L12.9658 11.6442L13.1164 13.7224V20.6335Z" fill="#E3EBEC"/>
<path d="M8.94141 11.331L22.8157 3.3833L26.9915 5.77487L13.1164 13.7226L8.94141 11.331Z" fill="#C6D3D7"/>
<path d="M4.13724 8.47408L4.0459 8.63232L17.9209 16.5803L18.0122 16.422L4.13724 8.47408Z" fill="#1F73B4"/>
<path d="M18.0574 16.5002H17.8749V32.3951H18.0574V16.5002Z" fill="#1F73B4"/>
<path d="M31.7959 8.47294L17.9209 16.4209L18.0122 16.5791L31.8872 8.63118L31.7959 8.47294Z" fill="#1F73B4"/>
<path d="M26.9757 5.74604L13.1005 13.6941L13.1337 13.7516L27.0089 5.80359L26.9757 5.74604Z" fill="#1F73B4"/>
<path d="M8.97458 11.3311H8.9082V18.2419H8.97458V11.3311Z" fill="#1F73B4"/>
<path d="M8.95894 18.2132L8.92572 18.2708L13.1008 20.6623L13.134 20.6048L8.95894 18.2132Z" fill="#1F73B4"/>
<path d="M13.1504 13.7224H13.084V20.6333H13.1504V13.7224Z" fill="#1F73B4"/>
<path d="M22.8004 3.353L8.9267 11.3027L8.95992 11.3603L22.8336 3.41054L22.8004 3.353Z" fill="#1F73B4"/>
<path d="M21.057 22.1917C21.0565 22.1757 21.0559 22.1594 21.0556 22.1432C21.0276 20.5886 22.0435 18.7441 23.325 18.0233C24.4293 17.402 25.3701 17.8181 25.6273 18.9398C25.8431 18.6685 26.0933 18.4418 26.3617 18.2908C27.1988 17.82 27.8922 18.2614 27.9106 19.277C27.9113 19.3184 27.9106 19.3603 27.9091 19.4024C28.5355 19.3326 28.9917 19.8093 29.0069 20.6605C29.0267 21.7541 28.3116 23.0519 27.4103 23.559L21.5885 26.8341C20.4616 27.4681 19.528 26.8738 19.5034 25.5067C19.482 24.3245 20.1476 22.9514 21.057 22.1917Z" fill="#E3EBEC"/>
<path d="M30.9414 18.6437C30.9641 19.9009 30.1424 21.3924 29.1063 21.9753L29.0136 22.0275C29.2274 21.5182 29.3486 20.9775 29.3395 20.4738C29.3234 19.5792 28.8893 18.9964 28.2371 18.9545C28.1569 17.8157 27.3354 17.3366 26.3549 17.8883C26.1749 17.9895 25.9968 18.1222 25.827 18.2803C25.7548 18.1073 25.665 17.9535 25.5586 17.8221C25.9361 16.9697 26.5508 16.2091 27.2521 15.8145C28.4304 15.1517 29.4067 15.7729 29.4323 17.2024C29.4325 17.2176 29.4326 17.2327 29.4326 17.2476C30.2769 17.0009 30.9218 17.5564 30.9414 18.6437Z" fill="#9DC8DC"/>
<path d="M17.9664 32.5L4 24.5001V8.49986L4.04595 8.47342L17.9662 0.5L31.933 8.49986V24.5001L31.8871 24.5266L17.9664 32.5ZM4.18306 24.3947L17.9664 32.2897L31.7499 24.3947V8.60545L17.9662 0.710254L4.18306 8.60526V24.3947Z" fill="#1F73B4"/>
<path d="M46.6937 8.34692C47.8563 8.34692 48.9118 8.62939 49.8597 9.19177C50.807 9.7567 51.5599 10.5137 52.1175 11.4657L51.0186 12.0843C50.5884 11.3226 49.995 10.7153 49.2384 10.2629C48.4818 9.81195 47.6337 9.58584 46.6937 9.58584C46.0085 9.58584 45.3636 9.71604 44.7586 9.97808C44.1527 10.2401 43.6236 10.5966 43.1695 11.049C42.7157 11.5016 42.3574 12.029 42.0944 12.6313C41.8317 13.2353 41.7001 13.8783 41.7001 14.5603V20.0345C41.7001 20.7328 41.8315 21.3823 42.0944 21.9863C42.3574 22.5886 42.7157 23.1127 43.1695 23.5571C43.6238 24.0015 44.1529 24.3547 44.7586 24.6151C45.3636 24.8771 46.0087 25.009 46.6937 25.009C47.6337 25.009 48.4818 24.7827 49.2384 24.3302C49.995 23.8776 50.5884 23.2788 51.0186 22.5331L52.1175 23.1517C51.5599 24.0894 50.807 24.8381 49.8597 25.4012C48.912 25.9645 47.8563 26.246 46.6937 26.246C45.8337 26.246 45.0249 26.0832 44.2687 25.7577C43.5118 25.4338 42.8508 24.9894 42.2855 24.4262C41.7202 23.8629 41.2739 23.2037 40.9477 22.45C40.6209 21.6963 40.4578 20.8905 40.4578 20.0343V14.5601C40.4578 13.7023 40.6209 12.8981 40.9477 12.1444C41.2741 11.3908 41.7202 10.7316 42.2855 10.1683C42.8509 9.60498 43.5118 9.16059 44.2687 8.83509C45.0248 8.5105 45.8337 8.34692 46.6937 8.34692Z" fill="#24699E"/>
<path d="M59.644 13.7739C60.5038 13.7739 61.3164 13.9368 62.0808 14.2623C62.8455 14.5878 63.5105 15.0322 64.076 15.5955C64.6414 16.1587 65.0875 16.8212 65.4143 17.5829C65.7403 18.3446 65.9042 19.1537 65.9042 20.0099V25.961H64.6378V23.7472C64.0798 24.5089 63.3674 25.1112 62.4993 25.5556C61.6309 26 60.6793 26.2214 59.6441 26.2214C58.7838 26.2214 57.9754 26.0586 57.2188 25.7347C56.4622 25.4092 55.8008 24.9648 55.2359 24.4015C54.6701 23.8382 54.224 23.179 53.8976 22.4253C53.5712 21.6717 53.4079 20.8677 53.4079 20.0097C53.4079 19.1534 53.5714 18.3444 53.8976 17.5828C54.224 16.8209 54.6701 16.1584 55.2359 15.5953C55.8008 15.032 56.4622 14.5876 57.2188 14.2621C57.975 13.9368 58.7836 13.7739 59.644 13.7739ZM59.644 15.0354C58.9588 15.0354 58.3139 15.1673 57.7085 15.4277C57.1029 15.6897 56.5735 16.043 56.1197 16.4874C55.6654 16.9317 55.3071 17.4591 55.0444 18.0696C54.7814 18.6816 54.6501 19.3279 54.6501 20.0099C54.6501 20.6919 54.7812 21.3349 55.0444 21.9388C55.3071 22.5411 55.6654 23.0685 56.1197 23.5211C56.5735 23.9735 57.1029 24.33 57.7085 24.5921C58.3139 24.8541 58.959 24.9843 59.644 24.9843C60.3286 24.9843 60.9777 24.8541 61.591 24.5921C62.2042 24.33 62.734 23.9735 63.1801 23.5211C63.6258 23.0685 63.9804 22.5411 64.2435 21.9388C64.5062 21.3349 64.6378 20.6919 64.6378 20.0099C64.6378 19.3279 64.5063 18.6816 64.2435 18.0696C63.9804 17.4591 63.6258 16.9317 63.1801 16.4874C62.734 16.043 62.2042 15.6897 61.591 15.4277C60.9777 15.1673 60.3286 15.0354 59.644 15.0354Z" fill="#24699E"/>
<path d="M69.6548 25.9838H68.412V20.0343C68.412 19.1765 68.5755 18.3674 68.9019 17.6057C69.2283 16.844 69.6744 16.1813 70.2402 15.6182C70.8052 15.0549 71.4666 14.6105 72.2231 14.2867C72.9797 13.9612 73.7881 13.7983 74.6485 13.7983V15.0599C73.9635 15.0599 73.318 15.1901 72.713 15.4521C72.1076 15.7141 71.5782 16.0674 71.1242 16.5118C70.6701 16.9562 70.3116 17.4835 70.0491 18.094C69.7861 18.7044 69.6548 19.3523 69.6548 20.0343V25.9838Z" fill="#24699E"/>
<path d="M76.5596 11.0134H77.8024V14.1306H82.3181V15.3693H77.8024V23.0572C77.8024 23.565 77.9849 24.0012 78.3518 24.3659C78.7179 24.7306 79.1638 24.9128 79.6896 24.9128C80.1994 24.9128 80.6369 24.7304 81.0037 24.3659C81.3698 24.0012 81.5533 23.565 81.5533 23.0572H82.7959C82.7959 23.4853 82.7159 23.8905 82.557 24.2698C82.3972 24.6508 82.1746 24.9812 81.8879 25.258C81.601 25.5363 81.2703 25.7576 80.8965 25.9252C80.5217 26.0914 80.1199 26.1743 79.6897 26.1743C79.2596 26.1743 78.8535 26.0914 78.4711 25.9252C78.0887 25.7576 77.7583 25.5363 77.4797 25.258C77.2007 24.9812 76.9781 24.6508 76.8106 24.2698C76.6435 23.8905 76.5598 23.4852 76.5598 23.0572V11.0134H76.5596Z" fill="#24699E"/>
<path d="M89.8678 13.7983C90.7281 13.7983 91.5362 13.9612 92.2931 14.2867C93.0493 14.6105 93.7107 15.0549 94.276 15.6182C94.8415 16.1813 95.2876 16.844 95.6143 17.6057C95.9403 18.3676 96.104 19.1765 96.104 20.0343C96.104 20.8904 95.9402 21.6963 95.6143 22.4499C95.2876 23.2036 94.8415 23.8628 94.276 24.4261C93.7105 24.9894 93.0493 25.4338 92.2931 25.7577C91.5362 26.0832 90.7281 26.246 89.8678 26.246C89.0079 26.246 88.199 26.0832 87.4428 25.7577C86.6859 25.4338 86.0248 24.9894 85.4595 24.4261C84.8943 23.8628 84.448 23.2036 84.1218 22.4499C83.795 21.6963 83.6319 20.8904 83.6319 20.0343C83.6319 19.1765 83.795 18.3674 84.1218 17.6057C84.4482 16.844 84.8943 16.1813 85.4595 15.6182C86.025 15.0549 86.6859 14.6105 87.4428 14.2867C88.199 13.9612 89.0078 13.7983 89.8678 13.7983ZM89.8678 15.0599C89.1668 15.0599 88.5141 15.1901 87.9085 15.4521C87.3031 15.7141 86.7774 16.0674 86.3316 16.5118C85.8855 16.9562 85.5313 17.4835 85.2683 18.094C85.0056 18.7044 84.8739 19.3523 84.8739 20.0343C84.8739 20.7163 85.0054 21.3593 85.2683 21.9616C85.5313 22.5655 85.8855 23.0929 86.3316 23.5437C86.7774 23.9963 87.3031 24.3544 87.9085 24.6148C88.5141 24.8769 89.1668 25.0087 89.8678 25.0087C90.5524 25.0087 91.1975 24.8769 91.8032 24.6148C92.4082 24.3544 92.9382 23.9963 93.392 23.5437C93.8458 23.0927 94.2046 22.5654 94.4673 21.9616C94.7303 21.3593 94.8616 20.7163 94.8616 20.0343C94.8616 19.3523 94.7305 18.7044 94.4673 18.094C94.2046 17.4835 93.846 16.9562 93.392 16.5118C92.9382 16.0674 92.4084 15.7141 91.8032 15.4521C91.1975 15.1901 90.5524 15.0599 89.8678 15.0599Z" fill="#24699E"/>
<path d="M103.822 13.7983C104.682 13.7983 105.49 13.9612 106.247 14.2867C107.003 14.6105 107.665 15.0549 108.23 15.6182C108.795 16.1813 109.242 16.844 109.568 17.6057C109.894 18.3676 110.058 19.1765 110.058 20.0343V25.9838H108.815V20.0343C108.815 19.3523 108.684 18.7044 108.421 18.094C108.158 17.4835 107.804 16.9562 107.358 16.5118C106.912 16.0674 106.382 15.7141 105.769 15.4521C105.156 15.1901 104.506 15.0599 103.822 15.0599C103.137 15.0599 102.492 15.1901 101.886 15.4521C101.281 15.7141 100.751 16.0674 100.298 16.5118C99.8438 16.9562 99.485 17.4835 99.2223 18.094C98.9596 18.7044 98.828 19.3523 98.828 20.0343V25.9838H97.5858V20.0343C97.5858 19.1765 97.7487 18.3674 98.0754 17.6057C98.4015 16.844 98.8476 16.1813 99.4132 15.6182C99.9781 15.0549 100.64 14.6105 101.396 14.2867C102.153 13.9612 102.961 13.7983 103.822 13.7983Z" fill="#24699E"/>
<path d="M118.778 8.34692C119.941 8.34692 120.997 8.62939 121.944 9.19177C122.892 9.7567 123.644 10.5137 124.202 11.4657L123.103 12.0843C122.673 11.3226 122.08 10.7153 121.323 10.2629C120.567 9.81195 119.719 9.58584 118.778 9.58584C118.093 9.58584 117.448 9.71604 116.843 9.97808C116.237 10.2401 115.709 10.5966 115.255 11.049C114.8 11.5016 114.443 12.029 114.179 12.6313C113.916 13.2353 113.785 13.8783 113.785 14.5603V20.0345C113.785 20.7328 113.916 21.3823 114.179 21.9863C114.442 22.5886 114.8 23.1127 115.255 23.5571C115.709 24.0015 116.237 24.3547 116.843 24.6151C117.448 24.8771 118.093 25.009 118.778 25.009C119.719 25.009 120.567 24.7827 121.323 24.3302C122.08 23.8776 122.673 23.2788 123.103 22.5331L124.202 23.1517C123.644 24.0894 122.892 24.8381 121.944 25.4012C120.997 25.9645 119.941 26.246 118.778 26.246C117.918 26.246 117.109 26.0832 116.353 25.7577C115.596 25.4338 114.936 24.9894 114.37 24.4262C113.805 23.8629 113.359 23.2037 113.032 22.45C112.705 21.6963 112.542 20.8905 112.542 20.0343V14.5601C112.542 13.7023 112.705 12.8981 113.032 12.1444C113.359 11.3908 113.805 10.7316 114.37 10.1683C114.936 9.60498 115.596 9.16059 116.353 8.83509C117.109 8.5105 117.918 8.34692 118.778 8.34692Z" fill="#24699E"/>
<path d="M125.923 8.13379H127.165V23.1287C127.165 23.6512 127.348 24.0956 127.714 24.4603C128.08 24.8266 128.526 25.0088 129.052 25.0088V26.2459C128.622 26.2459 128.216 26.1662 127.833 26.0083C127.451 25.8504 127.121 25.6274 126.841 25.3409C126.564 25.056 126.34 24.7223 126.173 24.3414C126.006 23.9605 125.923 23.5567 125.923 23.1287V8.13379H125.923Z" fill="#24699E"/>
<path d="M136.172 13.7983C137.032 13.7983 137.84 13.9612 138.597 14.2867C139.353 14.6105 140.015 15.0549 140.581 15.6182C141.146 16.1813 141.592 16.844 141.919 17.6057C142.244 18.3676 142.408 19.1765 142.408 20.0343C142.408 20.8904 142.244 21.6963 141.919 22.4499C141.592 23.2036 141.146 23.8628 140.581 24.4261C140.015 24.9894 139.353 25.4338 138.597 25.7577C137.84 26.0832 137.031 26.246 136.172 26.246C135.312 26.246 134.504 26.0832 133.747 25.7577C132.99 25.4338 132.329 24.9894 131.763 24.4261C131.198 23.8628 130.752 23.2036 130.425 22.4499C130.1 21.6963 129.936 20.8904 129.936 20.0343C129.936 19.1765 130.1 18.3674 130.425 17.6057C130.752 16.844 131.198 16.1813 131.763 15.6182C132.329 15.0549 132.99 14.6105 133.747 14.2867C134.504 13.9612 135.312 13.7983 136.172 13.7983ZM136.172 15.0599C135.471 15.0599 134.817 15.1901 134.213 15.4521C133.607 15.7141 133.082 16.0674 132.636 16.5118C132.19 16.9562 131.835 17.4835 131.572 18.094C131.309 18.7044 131.178 19.3523 131.178 20.0343C131.178 20.7163 131.309 21.3593 131.572 21.9616C131.835 22.5655 132.19 23.0929 132.636 23.5437C133.082 23.9963 133.607 24.3544 134.213 24.6148C134.817 24.8769 135.471 25.0087 136.172 25.0087C136.857 25.0087 137.502 24.8769 138.107 24.6148C138.713 24.3544 139.242 23.9963 139.697 23.5437C140.151 23.0927 140.509 22.5654 140.772 21.9616C141.035 21.3593 141.166 20.7163 141.166 20.0343C141.166 19.3523 141.035 18.7044 140.772 18.094C140.509 17.4835 140.151 16.9562 139.697 16.5118C139.242 16.0674 138.713 15.7141 138.107 15.4521C137.502 15.1901 136.857 15.0599 136.172 15.0599Z" fill="#24699E"/>
<path d="M148.595 26.2215C147.943 26.2215 147.334 26.0994 146.768 25.8537C146.203 25.6079 145.708 25.2742 145.286 24.8543C144.865 24.4343 144.53 23.941 144.283 23.3779C144.036 22.8146 143.914 22.2076 143.914 21.558V14.0605H145.156V21.558C145.156 22.0332 145.242 22.4826 145.419 22.9025C145.594 23.3225 145.837 23.6872 146.148 23.9965C146.458 24.3057 146.824 24.5483 147.246 24.7224C147.667 24.8982 148.118 24.9845 148.595 24.9845C149.074 24.9845 149.52 24.8982 149.934 24.7224C150.349 24.5483 150.71 24.3057 151.022 23.9965C151.332 23.6872 151.574 23.3225 151.751 22.9025C151.926 22.4826 152.012 22.0332 152.012 21.558V14.0605H153.279V21.558C153.279 22.2076 153.156 22.8146 152.909 23.3779C152.661 23.9412 152.328 24.4343 151.906 24.8543C151.483 25.2742 150.986 25.6079 150.412 25.8537C149.839 26.0995 149.233 26.2215 148.595 26.2215Z" fill="#24699E"/>
<path d="M160.805 13.774C161.841 13.774 162.789 14.0001 163.648 14.4527C164.509 14.9053 165.225 15.5124 165.799 16.2726V8.10938H167.042V20.01C167.042 20.8678 166.879 21.6719 166.552 22.4256C166.225 23.1793 165.779 23.8385 165.214 24.4018C164.648 24.9651 163.986 25.4095 163.23 25.735C162.473 26.0588 161.666 26.2217 160.805 26.2217C159.945 26.2217 159.136 26.0588 158.38 25.735C157.623 25.4095 156.962 24.9651 156.398 24.4018C155.831 23.8385 155.385 23.1793 155.059 22.4256C154.733 21.6719 154.569 20.8679 154.569 20.01C154.569 19.1536 154.733 18.3447 155.059 17.583C155.384 16.8211 155.831 16.1587 156.398 15.5955C156.962 15.0323 157.623 14.5879 158.38 14.2624C159.136 13.9369 159.945 13.774 160.805 13.774ZM160.805 15.0355C160.12 15.0355 159.475 15.1674 158.87 15.4278C158.264 15.6898 157.734 16.043 157.282 16.4874C156.828 16.9318 156.468 17.4592 156.207 18.0697C155.944 18.6817 155.811 19.328 155.811 20.01C155.811 20.692 155.944 21.335 156.207 21.9389C156.468 22.5412 156.828 23.0686 157.282 23.5212C157.735 23.9736 158.264 24.3301 158.87 24.5922C159.475 24.8542 160.12 24.9844 160.805 24.9844C161.489 24.9844 162.135 24.8542 162.741 24.5922C163.346 24.3301 163.875 23.9736 164.329 23.5212C164.784 23.0686 165.141 22.5412 165.405 21.9389C165.668 21.335 165.798 20.692 165.798 20.01C165.798 19.328 165.668 18.6817 165.405 18.0697C165.142 17.4592 164.784 16.9318 164.329 16.4874C163.875 16.043 163.346 15.6898 162.741 15.4278C162.135 15.1674 161.489 15.0355 160.805 15.0355Z" fill="#24699E"/>
</g>
<defs>
<clipPath id="clip0_626_18">
<rect width="170" height="32" fill="white" transform="translate(0 0.5)"/>
</clipPath>
</defs>
</svg>
