<svg xmlns="http://www.w3.org/2000/svg" style="display: none;">
  
    <symbol id="icon-linkedin" viewBox="0 0 512 512">
      <path d="m293 509c-135 22-264-67-291-201-28-134 56-266 188-300 66-17 136-7 195 27-6 9-18 13-28 8-98-47-216-20-284 65-68 84-70 204-4 291 66 86 182 116 282 73 99-44 156-150 137-257-2-11 5-22 15-25 19 71 7 146-33 207-41 61-105 102-177 112m-143-341c0-7 3-14 8-19 5-5 13-7 20-7 8 0 15 2 21 7 5 5 8 12 8 19 0 7-3 14-8 18-6 5-13 8-21 8-7 0-15-2-21-8-5-4-7-11-7-18z m3 197l0-150 50 0 0 150z m78 0c0-40 0-73 0-98l0-52 50 0 0 21c2-3 4-6 6-8 3-3 6-6 9-8 4-3 8-6 13-7 6-1 12-2 18-2 15-1 31 5 41 17 12 14 17 33 16 51l0 86-50 0 0-80c0-9-2-18-6-25-5-7-12-10-20-9-6-1-12 1-16 5-4 3-8 8-10 13-1 4-2 8-1 12l0 84z"/>
    </symbol>
  
    <symbol id="icon-play" viewBox="0 0 512 512">
      <path d="m293 509c-136 22-265-66-292-201-28-135 56-267 190-300 65-17 135-7 194 27-6 9-18 13-28 8-98-47-216-20-285 64-68 85-70 206-4 292 66 87 183 117 283 73 99-43 156-150 137-257-2-11 5-22 15-25 19 71 7 146-33 207-41 61-105 102-177 112m115-253l-208-120 0 240 208-120"/>
    </symbol>
  
    <symbol id="icon-checklist" viewBox="0 0 512 512">
      <path d="m293 509c-136 22-265-66-292-201-28-135 56-267 190-300 65-17 135-7 194 27-6 9-18 13-28 8-98-47-216-20-285 64-68 85-70 206-4 292 66 87 183 117 283 73 99-43 156-150 137-257-2-11 5-22 16-25 18 71 6 146-34 207-41 61-105 102-177 112m-57-126c16 1 30-8 35-23l-157 0c-5-1-9 1-12 5-2 4-2 9 0 12 3 4 7 6 12 6l122 0m0-95c16 2 30-8 35-23l-157 0c-5-1-9 1-12 5-2 4-2 9 0 13 3 4 7 6 12 5z m93 31c0 0 29-34 37-44 5-4 6-12 2-17l-37 43m37 0l-37-43c-3 5-2 13 3 17 8 10 37 43 37 43m-42 92c0 0 29-34 37-43 5-5 6-12 2-18l-37 43m37 0l-37-43c-3 6-2 13 3 18 8 9 37 43 37 43m-135-216c16 1 30-8 35-23l-157 0c-5-1-9 1-12 5-2 4-2 9 0 13 3 3 7 5 12 5z m72-52l48 61 113-136c4 11 5 27-14 45l-100 124c0 0-32-41-48-61-4-4-7-10-7-17 0-6 3-12 8-16z"/>
    </symbol>
  
    <symbol id="icon-youtube" viewBox="0 0 512 512">
      <path d="m293 509c-135 22-264-67-291-201-28-134 56-266 188-300 66-17 136-7 195 27-6 9-18 13-28 8-98-47-216-20-284 65-68 84-70 204-4 291 66 86 182 116 282 73 99-44 156-150 137-257-2-11 5-22 15-25 19 71 7 146-33 207-41 61-105 102-177 112m-173-243c0-10 0-18 0-23 0-6 1-13 2-21 0-8 1-15 3-22 1-7 5-14 10-19 5-5 12-8 19-9 22-2 56-4 102-4 34 0 68 1 102 4 7 1 14 4 19 9 6 5 9 11 11 19 1 6 2 14 3 22 1 7 2 14 3 21 0 5 0 13 0 23 0 7 0 15 0 23-1 5-1 12-2 20 0 8-1 15-3 23-1 7-5 13-10 18-5 5-12 9-19 9-34 3-68 4-102 4-34 0-68-1-102-4-7-1-14-4-19-9-6-5-9-11-11-18-1-7-2-14-3-23-1-7-1-14-1-20-1-6-1-13-2-23z m98 49c0 4 2 7 5 8 1 1 3 1 5 1 2 1 3 0 5-1l78-49c3-2 4-5 4-8 0-4-2-7-4-9l-79-49c-3-2-6-2-9 0-4 2-6 5-6 9z"/>
    </symbol>
  
    <symbol id="icon-instagram" viewBox="0 0 512 512">
      <path d="m293 509c-135 22-264-67-291-201-28-134 56-266 188-300 66-17 136-7 195 27-6 9-18 13-28 8-98-47-216-20-284 65-68 84-70 204-4 291 66 86 182 116 282 73 99-44 156-150 137-257-2-11 5-22 15-25 19 71 7 146-33 207-41 61-105 102-177 112m80-360c13 13 20 30 21 48l0 19-99 0c-5-4-11-7-17-9-13-4-27-4-40 0-6 2-12 5-18 9l-99 0 0-19c0-18 7-35 19-48 13-13 30-20 48-20l137 0c18 0 35 7 48 20z m-56 92l77 0 0 94c0 17-7 35-20 47-13 13-30 20-48 20l-137 0c-18 0-35-7-48-20-13-12-20-30-20-47l0-94 79 0c-4 9-7 18-6 28 0 26 16 50 40 60 25 9 53 3 71-16 19-20 23-48 12-72z m-39 47c-6 5-12 7-20 7-10 0-20-7-24-16-4-10-2-22 5-29 6-5 12-8 19-8 8 0 14 3 20 8 10 10 10 27 0 38z m75-117c0-2-1-4-2-6-2-1-4-2-6-2l-23 0c-2 0-4 1-6 2-1 2-2 4-2 6l0 23c0 2 1 4 2 5 2 2 4 3 6 2l23 0c2 1 4 0 5-2 2-1 3-3 3-5z"/>
    </symbol>
  
    <symbol id="icon-facebook" viewBox="0 0 512 512">
      <path d="m293 509c-135 22-264-67-291-201-28-134 56-266 188-300 66-17 136-7 195 27-6 9-18 13-28 8-98-47-216-20-284 65-68 84-70 204-4 291 66 86 182 116 282 73 99-44 156-150 137-257-2-11 5-22 15-25 19 71 7 146-33 207-41 61-105 102-177 112m13-335l-23 0c-8 0-14 3-16 7-2 5-4 10-3 15l0 17 42 0-4 52-38 0 0 113-52 0 0-113-30 0 0-52 30 0 0-38c-1-13 4-26 13-36 11-9 25-13 39-12l42 0z"/>
    </symbol>
  
    <symbol id="icon-check" viewBox="0 0 512 512">
      <path d="m470 238c7 47-3 94-26 135-49 87-151 130-248 105-97-24-165-111-166-211-1-101 65-189 161-216 51-14 105-9 153 13 15 8 34 7 49-3-99-68-234-56-318 30-84 86-95 221-25 318 71 98 201 132 310 79 108-52 163-175 130-291 0 0-24 7-19 41m30-238l-230 344-124-117c0 0-20 24 7 49 28 25 124 116 124 116l214-322c23-31 18-55 9-70"/>
    </symbol>
  
    <symbol id="icon-twitter" viewBox="0 0 512 512">
      <path d="m293 509c-135 22-264-67-291-201-28-134 56-266 188-300 66-17 136-7 195 27-6 9-18 13-28 8-98-47-216-20-284 65-68 84-70 204-4 291 66 86 182 116 282 73 99-44 156-150 137-257-2-11 5-22 15-25 19 71 7 146-33 207-41 61-105 102-177 112m121-340c-9 12-19 23-31 32l0 8c0 28-7 56-20 81-14 28-35 50-60 67-29 18-62 27-95 27-34 0-67-9-95-28 5 1 10 1 15 1 28 0 55-9 77-26-13 0-26-5-36-13-10-7-18-18-21-30 3 1 7 1 11 1 5 0 11-1 16-2-14-3-27-10-36-21-9-11-14-25-13-40l0 0c8 4 17 7 27 8-18-12-28-31-27-52 0-11 3-21 8-31 31 40 78 63 128 64-2-4-3-9-2-13-1-17 6-32 18-44 11-12 27-18 44-18 17 0 33 7 44 19 14-3 27-8 39-14-4 14-14 26-26 34 12-2 23-5 35-10z"/>
    </symbol>
  
    <symbol id="icon-talk" viewBox="0 0 512 512">
      <path d="m294 209c0-11-8-19-19-19-11 0-19 8-19 19 0 11 8 19 19 19 11 0 19-8 19-19m-87 0c0-11-8-19-19-19-11 0-19 8-19 19 0 11 8 19 19 19 11 0 19-8 19-19z m-106-19c-11 0-20 8-20 19 0 11 9 19 20 19 10 0 19-8 19-19 0-11-9-19-19-19z m409 123c0 54-33 102-83 122 0 0-6-13 18-28 31-21 50-56 49-94 0-62-51-113-113-113-4 0-8 0-12 0 0 21-3 42-9 63-15 42-43 78-82 101 14 28 39 49 68 58 2 1 4 4 3 6l-5 32 14-9c0 0 25-16 33-3 0 0-67 42-67 42l2-15 7-41c-30-12-54-34-69-63-6 3-12 6-19 8l4 4 11 63 3 21c0 0-92-60-92-60 14-22 37-3 37-3l31 23-9-49c0-1 0-3 0-4 0-4-1-7-1-11 9-3 18-6 27-11 7-3 11-5 14-7l1 0c33-21 57-52 70-88 5-17 8-35 8-53 0-5 0-11 0-16-8-64-51-118-113-138-63-21-132-2-175 48-43 51-52 122-22 181 15 31 41 57 72 72 23 12 17 29 17 29-96-32-149-136-117-232 31-96 135-149 231-117 68 22 117 82 126 153 4 0 8-1 13-1 71 1 129 59 129 130z"/>
    </symbol>
  
    <symbol id="icon-tereo" viewBox="0 0 512 512">
      <path d="m293 509c-111 17-220-42-269-143-48-101-25-223 58-299 83-76 206-89 303-32-6 9-18 13-28 8-98-47-215-20-284 64-68 85-70 205-4 292 66 86 182 116 282 73 99-44 156-150 137-257-2-11 5-22 16-25 18 71 6 146-34 207-41 61-105 102-177 112m-166-252c5 1 10-1 14-5 4-3 6-8 6-13 0-12-8-19-21-19l-12 0 0 37 13 0m-42-61l43 0c31 0 48 18 48 41 1 16-8 30-21 38l33 61-15 0c-10 0-19-5-24-15l-20-40-15 0 0 55-29 0z m-76-176l4 0c3 0 5 2 5 4 0 2-1 3-2 4l3 6-1 0c-1 0-2 0-3-1l-2-4-1 0 0 5-3 0z m4 6c0 0 1 0 1 0 1-1 1-1 1-2 0-1-1-2-2-2l-1 0 0 4z m188 170l73 0c0 14-11 25-26 25l-18 0 0 32 38 0 0 25-38 0 0 33 20 0c14 0 26 11 26 25l-75 0 0-140m-181-176l8 0c0 1-1 2-3 2l-2 0 0 4 4 0 0 2-4 0 0 4 2 0c2 0 3 1 3 2l-8 0z m299 246c-1 16 7 31 21 39 14 9 31 9 45 0 13-8 22-23 21-39 1-16-8-31-21-39-14-9-31-9-45 0-14 8-22 23-21 39m-30 0c0-20 7-38 21-52 14-14 33-21 52-21 20 0 39 7 53 21 13 14 21 32 20 52 1 20-7 38-20 52-14 14-33 21-53 21-19 0-38-7-52-21-14-14-21-32-21-52z m-260-239c0-2 1-4 2-5 2-2 4-2 6-2 2 0 4 0 5 2 1 1 2 3 2 5 0 2-1 4-2 5-1 2-3 2-5 2-2 0-4 0-6-2-1-1-2-3-2-5z m3 0c0 2 1 3 3 4 1 1 3 1 4 0 1-1 2-2 2-4 0-2-1-3-2-4-1-1-3-1-4 0-2 1-3 2-3 4z"/>
    </symbol>
  
    <symbol id="icon-microscope" viewBox="0 0 512 512">
      <path d="m223 66l62-24c4 4 7 9 8 14l55 148c2 4 2 8 0 12-1 3-4 6-8 8l-40 14c-4 2-8 2-12 0-3-2-6-5-8-8l-55-149c-2-5-3-10-2-15m35-45l3 8-27 10-4-8z m220 305l-235 0c1 12 12 21 24 21l130 0c-1 1-1 2-2 3-24 69-86 116-159 121-73 4-140-36-172-101-26-54-24-118 6-169 30-52 84-85 144-89l46 125c4 9 10 16 19 20 5 2 10 4 16 4 4 0 8-1 12-3l40-14c19-7 28-28 21-47l-55-149c-7-20-21-30-33-26l-2 1-3-8c-2-5-5-8-9-10-4-2-9-3-14-1l-28 9c-10 4-14 14-11 23l3 9-3 2c-12 4-15 21-8 41l1 3c-24 3-47 9-69 19-76 38-121 119-112 204 10 84 72 154 155 173l-125 0c-13 0-23 10-24 22l396 0c-1-12-12-22-24-22l-132 0c15-3 29-8 42-14 49-23 85-65 103-115 1-4 2-7 3-10l59 0c6 0 10-6 10-14 0-7-4-8-10-8z"/>
    </symbol>
  
    <symbol id="icon-clock" viewBox="0 0 512 512">
      <path d="m293 509c-135 22-264-67-291-201-28-134 56-266 188-300 66-17 136-7 195 27-6 9-18 13-28 8-98-47-216-20-284 65-68 84-70 204-4 291 66 86 182 116 282 73 99-44 156-150 137-257-2-11 5-22 15-25 19 71 7 146-33 207-41 61-105 102-177 112m-29-368l0 121c1 4-1 7-4 9-3 2-7 2-10 0-3-2-4-5-4-9l0-139c10 0 18 8 18 18m-9 303c7 0 13-5 13-12 0-7-6-13-13-13-7 0-13 6-13 13 0 7 6 12 13 12m0-359c7 0 13-6 13-13 0-7-6-13-13-13-7 0-13 6-13 13 0 7 6 13 13 13m-191 177c0 7 6 12 13 12 7 0 13-6 13-13 0-7-6-12-13-12-3 0-6 1-9 3-2 3-4 6-4 10m360 0c0 7 6 12 13 12 7 0 12-6 12-13 0-7-5-12-12-12-4 0-7 1-10 3-2 3-3 6-3 10m-59 53l-105-60c-4-3-10-1-12 3-3 4-1 10 3 13l121 70c3-5 3-10 2-14-1-5-4-9-9-12"/>
    </symbol>
  
    <symbol id="icon-ladder" viewBox="0 0 512 512">
      <path d="m293 509c-136 22-265-66-292-201-28-135 56-267 190-300 65-17 135-7 194 27-6 9-18 13-28 8-98-47-216-20-285 64-68 85-70 206-4 292 66 87 183 117 283 73 99-43 156-150 137-257-2-11 5-22 15-25 19 71 7 146-33 207-41 61-105 102-177 112m78-386l-93 309c-1 4-6 7-11 6-5-2-8-7-6-12l98-326c10 3 15 13 13 23m-100-40l-146 288c-2 5 0 10 5 13 2 1 4 1 7 0 2-1 4-2 5-4l153-305c-4-2-9-3-14-1-4 2-8 5-10 9m-19 48l97 39 6-15-97-39-6 15m-31 67l107 43 6-15-107-43-6 15m-33 68l117 46 6-14-117-47-6 15m-32 67l125 50 6-15-125-50-6 15"/>
    </symbol>
  
    <symbol id="icon-house" viewBox="0 0 512 512">
      <path d="m293 509c-111 17-220-42-269-143-48-101-24-223 58-299 83-76 206-89 303-32-6 9-18 13-28 8-98-47-216-20-284 64-69 85-70 205-4 292 65 86 182 117 282 73 99-44 156-150 137-257-2-11 5-22 16-25 18 71 6 146-34 207-41 61-105 102-177 112m-19-334l-20 0 0-44c-1-4 1-8 4-10 4-2 8-2 11 0 4 2 6 6 5 10l0 44m-160 171l-20 0 0-121c0-6 4-11 10-11 6 0 10 5 10 11l0 121m303 0l-20 0 0-121c0-6 4-11 10-11 5 0 10 5 10 11l0 121m-376-59l222-141 207 142c-6 9-19 11-28 5l-179-122-194 123c-10 6-22 3-28-7"/>
    </symbol>
  
    <symbol id="icon-chemistry" viewBox="0 0 512 512">
      <path d="m41 376c-64-101-37-234 61-302 99-67 232-45 304 50 36 47 52 106 45 164-10-1-17-10-16-19 4-95-57-180-148-206-91-26-188 14-235 96-47 82-31 185 38 250 69 65 173 74 252 23 8-6 19-4 25 4-50 38-115 54-177 43-62-12-116-49-149-103m268-59c-8 1-16-1-22-7-7-5-9-15-5-23l1-1 1-2 23-23 23-23 1-1c8-4 19-3 25 4 5 6 8 14 6 22l0 1 140 140 1 1c6 12 6 27-1 39l-1 1-1 1-5 5 0-1-4 4 0 1c-12 8-27 9-39 3l-2 0-1-1-140-140z m36-67c-1-1-4-2-6-1l0 0-22 22-22 22-1 0c0 2 0 5 2 6l0 1c3 3 8 4 12 3l1 0 4-2 144 145 1 0c7 3 16 3 23-1l1-1 4-4 0 0 3-3 1-1c4-7 5-16 1-23l0-1-144-145 1-4c2-4 1-9-3-13z m-286-118c46-7 92 3 130 29 59 37 108 37 151 15 4-2 7-4 11-6l5-3c2-1 7-4 7-5 16-10 33-18 51-22l4-1 3 14c-18 3-35 11-50 21l-9 6c-5 3-10 6-15 8-48 24-102 24-165-16-34-23-76-32-117-27l-3 1z m78 202c-19 0-33 15-33 33 0 19 14 34 33 34 18 0 33-15 33-34 0-18-15-33-33-33z m0 14c10 0 19 9 19 19 0 11-9 20-19 20-11 0-20-9-20-20 0-10 9-19 20-19z m36-138c-16 0-28 12-28 28 0 15 12 27 28 27 15 0 27-12 27-27 0-16-12-28-27-28z m0 14c7 0 13 6 13 14 0 7-6 13-13 13-8 0-14-6-14-13 0-8 6-14 14-14z m83 12c-12 0-23 11-23 23 0 13 10 24 23 24 13 0 24-10 24-22 0-7-2-13-7-18-4-4-9-6-15-7z m1 14c2 0 5 1 6 3 2 2 3 4 3 7 0 5-4 9-10 9-5 0-9-4-9-9 0-5 4-9 9-10z m77 81l10 10c2-3 2-6 1-8 0 0 0 0 0-1l0 1c1 0 1 1 2 1 3 2 8 4 13 6 12 5 25 6 35 3 16-6 30-6 40-4 2 1 4 1 5 2l0 0-5 12-1 0c0 0-1 0-2 0-8-2-19-2-33 3-13 4-29 3-44-3-6-2-11-4-15-7-2-1-4-2-5-4-1 0-2-1-2-2-1-3-2-6 0-8z"/>
    </symbol>
  
    <symbol id="icon-communication" viewBox="0 0 512 512">
      <path d="m287 505c-108 15-215-42-262-141-47-99-24-218 57-293 80-74 200-87 296-32-6 9-18 13-27 8-97-46-212-20-279 63-68 83-69 202-5 286 65 85 180 115 277 72 98-43 154-147 135-252-2-11 5-21 15-24 19 69 7 143-33 203-39 59-103 100-174 110m-144-288c0 11-9 20-20 20-11 0-20-9-20-20 0-11 9-20 20-20 5-1 11 1 14 5 4 4 6 9 6 15m14 0c0-9-3-18-10-25-6-6-15-10-24-9-14 0-26 8-32 21-5 12-2 27 8 37 9 10 24 12 37 7 13-5 21-18 21-31z m6 91l-81 0c9-19 23-39 43-39 17 0 29 19 38 39m17 4c-14-38-32-57-55-57-24 0-45 20-60 58-1 2 0 4 1 6 1 2 3 3 6 3l101 0c3 0 5-1 6-3 2-2 2-4 1-6z m214-95c0 8-5 15-12 18-8 3-16 2-22-4-6-6-8-14-4-22 3-7 10-12 18-12 6-1 11 1 15 5 4 4 6 9 5 15m14 0c1-9-3-18-9-25-7-6-16-10-25-9-14 0-26 8-31 21-6 12-3 27 7 37 10 10 24 12 37 7 13-5 21-18 21-31z m6 91l-80 0c9-19 23-39 43-39 16 0 29 19 37 39m17 4c-14-38-32-57-54-57-25 0-46 20-60 58-1 2-1 4 0 6 2 2 4 3 6 3l102 0c2 0 4-1 6-3 1-2 1-4 0-6z m-179-227c47 0 92 21 121 59 1 2 1 5-1 6-2 2-5 2-7 0-27-35-69-56-113-55-44 0-86 20-113 56-2 2-5 2-7 0-2-1-2-4-1-6 29-38 74-60 121-60z m125 21c3 0 5 2 5 4l0 1 0 42c0 3-2 5-5 5-2 0-4-2-4-4l0-1 0-42c0-3 2-5 4-5z m-2 42c3 0 5 3 5 5 0 3-2 5-4 5l-1 0-40 0c-3 0-5-2-5-5 0-2 1-4 4-4l1-1z m-1 206c1-3 4-3 6-1 2 1 3 4 1 6-28 38-73 60-120 60-48 1-92-21-121-59-2-2-2-5 0-6 3-2 6-2 7 1 27 35 69 55 114 55 44 0 86-21 113-56z m-239-8c2 0 4 2 5 4l0 1 0 42c0 3-3 5-5 5-3 0-5-2-5-4l0-1 0-42c0-3 2-5 5-5z m43 0c2 0 4 2 4 5 0 2-1 4-3 5l-1 0-41 0c-3 0-5-3-5-5 0-3 2-5 4-5l1 0z"/>
    </symbol>
  
    <symbol id="icon-pair" viewBox="0 0 512 512">
      <path d="m287 505c-108 15-215-42-262-141-47-99-24-218 57-292 81-75 201-88 296-33-6 9-18 13-27 8-97-46-213-20-280 63-67 83-69 202-4 287 65 85 179 115 277 72 98-43 154-148 135-253-2-11 5-21 15-24 19 69 7 143-33 203-39 60-103 100-174 110m-132-352c-31 0-56 24-56 55 0 30 25 55 56 55 30 0 55-25 55-55 0-31-25-55-55-55z m0 13c22 0 41 19 41 42 0 23-19 41-41 41-23 0-42-18-42-41 0-23 19-42 42-42z m77 327l-13-3 2-10c38-155 84-218 136-203 36 10 68 56 97 118l1 5-12 5-4-8c-26-57-56-99-86-107-41-12-82 45-118 194z m107-340c-30 0-55 24-55 55 0 30 25 55 55 55 15 0 29-6 39-16 11-11 17-25 17-39 0-31-25-55-56-55z m0 13c23 0 42 19 42 42 0 11-5 21-12 29-8 8-19 12-30 12-23 0-41-18-41-41 0-23 18-42 41-42z m-207 113c46-19 87 24 123 135l1 4-13 4c-34-108-70-145-106-131-27 11-54 48-78 98l-4 8-12-6c27-57 56-99 89-112z"/>
    </symbol>
  
    <symbol id="icon-hills" viewBox="0 0 512 512">
      <path d="m287 505c-108 15-215-42-262-141-47-99-24-218 57-292 81-75 201-88 296-33-6 9-18 13-27 8-97-46-213-20-280 63-67 83-69 202-4 287 65 85 179 115 277 72 98-43 154-148 135-253-2-11 5-21 15-24 19 69 7 143-33 203-39 60-103 100-174 110m8-317c58-8 112 12 158 50 14 12 27 24 37 36l4 5c2 2 3 3 4 5l2 2c1 2 2 3 3 4l0 1-17 11-1-1c-1-1-1-2-2-2l-3-5c-2-2-4-4-6-6-10-12-21-23-34-33-43-36-91-54-143-47-39 6-80 27-121 64l-3 3-2 3c-1 2-2 3-4 5l-2 3c-7 9-16 18-25 26-37 35-77 50-117 32l-2-1 9-19c31 15 64 3 96-27 8-8 16-16 22-24l4-4c0-1 1-1 1-2l3-4 1-2 1 0c45-43 91-67 137-73z m-251-23c73-54 160-58 255 22l4 3-14 16c-88-76-166-74-232-24-10 7-19 16-27 24-2 2-4 4-5 6l-3 3-1 1-17-12c2-3 6-7 11-13 8-9 18-18 29-26z"/>
    </symbol>
  
    <symbol id="icon-plant" viewBox="0 0 512 512">
      <path d="m451 387c-47 87-145 134-242 115-97-19-171-99-181-197-11-99 44-192 134-232 4 9 0 20-8 24-85 46-128 143-104 236 24 93 109 158 205 156 96-1 179-68 200-162 21-94-24-190-110-232-9-5-13-15-10-24 60 24 107 72 129 132 22 61 17 128-13 184m-412-125c56-21 119-14 168 19 61 39 112 40 153 19 4-2 8-4 12-7l2-1 6-4c3-2 7-5 9-6 4-3 9-6 13-9 21-13 42-19 64-19l3 1-1 14c-20-2-39 4-59 16-3 2-6 4-9 6l-6 4-10 7c-1 1-3 2-4 3-4 3-9 5-14 8-45 23-101 22-166-20-45-30-102-37-152-19l-4 2z m122-122c-3 1-5 2-6 3l-1 1-3 4 0 3c0 3 0 8 2 14 3 9 9 18 18 28 19 22 50 30 77 19l2-1 4-5-1-2c-2-29-21-53-49-61l-2-1c-17-5-30-5-41-2z m39 16c20 6 35 23 39 42l0 2 0 0c-21 7-44 0-58-17l-2-2c-10-11-14-20-14-26l0-1 1 0c7-3 16-3 29 1z m53-70l0 223-14 0 0-223z m39 102l0 0c-29 8-49 33-52 62l0 2 4 6 2 0c27 11 58 3 77-19 9-9 14-19 17-27 2-6 3-11 3-15l0-1-1-1-1-4-2-2c-1-1-4-2-6-2-11-4-24-4-41 1z m37 12l0 1c-1 7-5 17-16 28l-2 2c-14 16-36 22-56 16l0-2c4-20 19-36 38-42l3-1c14-5 25-5 32-2z m-145-200c-1 0-1 1-2 1l-1 0-4 3-1 1c0 1-1 3-1 5-3 10-2 24 6 40 10 26 36 43 64 42l2 0 5-4 0-2c7-27-4-56-27-72-16-12-30-15-41-14z m4 14l0 0c2 0 5 0 8 1 6 1 12 4 19 9l4 3c15 11 23 30 21 49l0 2-2 0c-20-2-37-15-44-33l-1-3c-5-12-6-21-5-27z m85-1l-2 1 0 0c-23 16-34 45-27 72l0 2 5 4 3 0c28 1 53-16 64-42 7-16 8-30 5-40 0-2-1-4-1-4l-1-2-3-3-2 0c0 0-1-1-2-1-10-1-23 2-39 13z m34 1l1 0 0-1c2 7 1 17-4 29l-2 5c-8 17-25 29-44 31l-1 0-1-2c-2-19 6-37 21-49l2-1c8-6 15-9 22-11 2-1 4-1 6-1z"/>
    </symbol>
  
    <symbol id="icon-group" viewBox="0 0 512 512">
      <path d="m378 204c-11 0-19 9-19 19l0 26c0 11 8 20 19 20l26 0c11 0 20-9 20-20l0-26c0-10-9-19-20-19l-26 0m26 84l-26 0c-21 0-39-17-39-39l0-26c0-21 18-38 39-38l26 0c22 0 39 17 39 38l0 26c0 22-17 39-39 39z m-23 160c-7-38-18-75-33-110 1-2 3-4 4-5 15-16 17-18 36-18 34 0 51 36 59 66-17 26-40 49-66 67z m-63 28c-57 16-118 9-169-18 5-26 36-179 112-179 62 0 97 144 100 180-14 7-28 13-43 17z m-259-104c10-27 29-57 59-57 23 0 33 11 43 33-14 32-24 65-31 98-29-19-53-44-71-74z m444-185c0 0-25 7-20 42 6 44-2 89-22 128-15-41-40-63-73-63-27 0-34 6-50 24-19-34-44-60-77-60-39 0-68 30-88 67-11-20-32-32-54-31-30 0-55 19-72 54-4-10-8-20-11-30-34-122 37-248 158-282 53-14 108-10 158 12 16 9 35 8 50-2-102-71-240-58-328 31-87 88-98 227-26 328 73 101 207 136 319 82 112-54 170-180 136-300z m-387-7c-13 0-25 20-25 42 0 23 12 43 25 43 13 0 24-20 24-43 0-22-12-42-25-42z m0 105c-26 0-46-27-46-63 0-35 20-63 46-63 25 0 45 28 45 63 0 36-20 63-46 63z m140-132c-21 0-38 18-38 39 0 21 17 38 38 38 22 0 39-17 39-38 1-10-3-21-10-28-8-8-18-12-29-11z m0 98c-32-2-57-28-57-59 0-32 25-58 57-60 16 0 32 6 43 17 11 11 17 27 16 43 1 15-6 31-17 42-11 11-26 17-42 17z"/>
    </symbol>
  
    <symbol id="icon-network" viewBox="0 0 512 512">
      <path d="m85 251c10 0 18 7 18 17l0 16c0 9-8 17-18 17l-15 0c-10 0-17-8-17-17l0-16c0-10 8-17 17-17l15 0m34 33l0-16c0-19-15-34-34-34l-15 0c-19 0-34 15-34 34l0 16c0 18 15 34 34 34l15 0c19 0 34-16 34-34z m11 105l-104 0c12-25 30-50 55-50 22 1 38 26 49 50z m-118 20l131-1c3 0 6-1 8-4 1-2 2-5 1-8-19-50-42-74-71-74-31 0-59 25-77 74-1 3-1 6 1 8 1 3 4 4 7 5z m474-179l-103 0c11-25 29-50 55-50 21 0 38 25 48 50z m-117 19l130-1c3 0 6-1 8-4 1-2 2-5 1-8-18-49-42-74-70-74-32 0-59 26-78 74-1 3-1 6 1 9 2 2 4 4 7 4z m91-137c0 15-11 26-25 26-15 0-26-11-26-26 0-14 11-25 26-25 7-1 14 2 18 6 5 5 8 12 7 19z m18 0c1-11-3-23-12-31-8-9-20-13-31-13-18 0-34 11-41 28-7 16-3 35 9 47 13 13 32 17 48 10 17-7 28-23 27-41z m-434 80c6-18 15-36 25-52 29-45 74-76 126-87 47-10 96-3 138 20 14 9 31 9 45 1-63-50-147-63-221-35-75 29-129 94-142 173 0 0 23-4 29-20z m392 117c-5 20-12 38-22 55-27 46-71 79-122 93-47 11-96 7-139-14-14-8-31-7-44 2 65 47 149 56 223 23 73-32 123-100 133-180-13 0-25 9-29 21z"/>
    </symbol>
  
    <symbol id="icon-mwlr-logo" viewBox="0 0 512 512">
      <path d="m482 142c4 7 6 13 9 20 36 90 17 197-56 270-92 92-238 98-337 18-1-1-1-1-1-1-15-12-23-23-26-33-10-24 4-41 8-44 16-17 43-17 60 0 16 17 16 44 0 60-7 7-15 10-23 12 13 9 30 10 44 1 80 41 181 28 248-40 58-57 75-140 53-213-4-15 0-31 11-42 3-3 7-6 10-8z m-403-66c92-93 238-98 337-18 0 0 0 1 1 1 14 12 22 23 25 32 10 25-4 41-7 45-17 16-44 16-60 0-17-17-17-44 0-60 6-7 14-11 22-12-13-9-30-10-43-1-81-41-181-28-249 39-57 58-75 141-53 214 4 14 1 31-11 42-3 3-6 6-10 8-3-7-6-13-9-20-35-91-16-198 57-270z"/>
    </symbol>
  
    <symbol id="icon-menu" viewBox="0 0 512 512">
      <path d="m449 111c28 0 52-13 58-39l-465 0c-13 0-23 7-23 19 0 13 10 20 23 20z m0 160c28 0 52-13 58-39l-465 0c-13 0-23 7-23 19 0 13 10 20 23 20z m0 160c28 0 52-13 58-39l-465 0c-13 0-23 7-23 19 0 13 10 20 23 20z"/>
    </symbol>
  
    <symbol id="icon-menu-close" viewBox="0 0 512 512">
      <path d="m378 34c-6 9-18 13-27 8-49-23-106-28-159-14-132 34-207 177-156 308 38 99 143 160 249 144 132-19 217-143 194-269-2-11 5-21 15-24 38 143-56 291-207 313-114 17-228-49-270-157-55-142 27-297 170-335 64-17 134-7 191 26z m-52 126c8 14 4 29-8 40l-51 51 75 75c-12 8-26 4-38-6l-2-2-51-51-75 75c-7-12-4-26 6-38l2-2 51-51-75-75c13-7 27-4 38 6l2 2 51 51z"/>
    </symbol>
  
    <symbol id="icon-plus" viewBox="0 0 512 512">
      <path d="m498 233c-8 31-36 46-70 46l-149 0 0 219c-29-7-45-33-46-64l0-6 0-149-219 0c8-29 33-45 64-46l6 0 149 0 0-219c29 7 45 33 46 64l0 6 0 149z"/>
    </symbol>
  
    <symbol id="icon-cross" viewBox="0 0 512 512">
      <path d="m467 0c22 38 10 80-23 113l-143 143 211 211c-36 21-75 11-107-17l-6-6-143-143-211 211c-21-36-11-75 17-107l6-6 143-143-211-211c36-21 75-11 107 17l6 6 143 143z"/>
    </symbol>
  
    <symbol id="icon-arrow-up" viewBox="0 0 512 512">
      <path d="m256 170c4 0 8 1 12 5 25 25 50 50 76 75 15 16-8 39-24 23-16-16-32-32-48-48 0 90 0 180 0 271 0 4-2 8-4 10-2 4-7 7-13 6-90-2-173-48-220-126-85-142-7-334 154-377 162-44 320 82 323 247 1 21-32 21-33 0-2-91-55-174-140-207-82-33-178-13-241 49-63 63-82 159-49 241 31 80 107 133 191 140 0-84 0-168 0-252-17 16-33 32-49 48-15 16-38-8-23-23 25-25 51-51 77-77 3-4 7-5 11-5z"/>
    </symbol>
  
    <symbol id="icon-arrow-right" viewBox="0 0 512 512">
      <path d="m342 256c0 4-1 8-5 12-25 25-50 50-75 76-16 15-39-8-23-24 16-16 32-32 48-48-90 0-180 0-271 0-4 0-8-2-10-4-4-2-7-7-6-13 2-90 48-173 126-220 142-85 334-7 377 154 44 162-82 320-247 323-21 1-21-32 0-33 91-2 174-55 207-140 33-82 13-178-49-241-63-63-159-82-241-49-80 31-133 107-140 191 84 0 168 0 252 0-16-17-32-33-48-49-16-15 8-38 23-23 25 25 51 51 77 77 4 3 5 7 5 11z"/>
    </symbol>
  
    <symbol id="icon-arrow-left" viewBox="0 0 512 512">
      <path d="m170 256c0-4 1-8 5-12 25-25 50-50 75-75 16-16 39 7 23 23-16 16-32 32-48 48 90 0 180 0 271 0 4 0 8 2 10 4 4 2 7 7 6 13-2 90-48 173-126 220-142 85-334 7-377-154-44-162 82-320 247-323 21-1 21 32 0 33-91 2-174 55-207 140-33 82-13 178 49 241 63 63 159 82 241 49 80-31 133-107 140-191-84 0-168 0-252 0 16 17 32 33 48 49 16 15-8 38-23 23-25-25-51-51-77-77-4-3-5-7-5-11z"/>
    </symbol>
  
    <symbol id="icon-arrow-down" viewBox="0 0 512 512">
      <path d="m256 342c-4 0-8-1-12-5-25-25-50-50-75-75-16-16 7-39 23-23 16 16 32 32 48 48 0-90 0-180 0-271 0-4 2-8 4-10 2-4 7-7 13-6 90 2 173 48 220 126 85 142 7 334-154 377-162 44-320-82-323-247-1-21 32-21 33 0 2 91 55 174 140 207 82 33 178 13 241-49 63-63 82-159 49-241-31-80-107-133-191-140 0 84 0 168 0 252 17-16 33-32 49-48 15-16 38 8 23 23-25 25-51 51-77 77-3 4-7 5-11 5z"/>
    </symbol>
  
    <symbol id="icon-email" viewBox="0 0 512 512">
      <path d="m375 34c-5 9-17 13-27 8-49-23-105-29-157-15-131 35-206 176-155 306 38 99 142 159 247 144 131-20 215-143 193-268-2-10 4-21 15-23 37 142-56 288-206 310-114 17-226-48-268-156-54-141 27-294 169-332 63-17 132-7 189 26z m-21 112c14 0 26 12 26 27l0 137c0 15-12 26-26 26l-225 0c-15 0-27-11-27-26l0-137c0-15 12-27 27-27z m13 25l-107 96c-11 9-27 9-37 0l-107-96c0 1 0 1 0 2l0 137c0 8 5 13 13 13l225 0c7 0 13-5 13-13l0-137c0-1 0-1 0-2z m-13-12l-225 0c-2 0-4 1-6 2l109 96c6 6 13 6 19 0l108-96c-1-1-3-2-5-2z"/>
    </symbol>
  
    <symbol id="icon-signpost" viewBox="0 0 512 512">
      <path d="m375 34c-5 9-17 13-27 8-49-23-105-29-157-15-131 35-206 176-155 306 38 99 142 159 247 144 131-20 215-143 193-268-2-10 4-21 15-23 37 142-56 288-206 310-114 17-226-48-268-156-54-141 27-294 169-332 63-17 132-7 189 26z m-132 83c15 0 27 12 27 27l0 17 64 0c8 0 14 3 19 9l35 37c9 11 9 27 0 37l-35 38c-5 6-11 9-19 9l-64 0 0 106c0 15-12 27-27 27l-10 0c-14 0-26-12-26-27l0-106-49 0c-14 0-26-13-26-28l0-74c0-15 12-28 26-28l49 0 0-17c0-15 12-27 26-27z m7 174l-23 0 0 106c0 4 3 7 6 7l10 0c4 0 7-3 7-7z m84-109l-176 0c-3 0-6 3-6 7l0 74c0 4 3 7 6 7l176 0c2 0 4-1 5-2l34-38c0 0 1 0 1 0 2-3 1-6-1-9l-34-37c-1-2-3-2-5-2z m-91-45l-10 0c-3 0-6 4-6 7l0 17 23 0 0-17c0-3-3-7-7-7z"/>
    </symbol>
  
    <symbol id="icon-phone" viewBox="0 0 512 512">
      <path d="m375 34c-5 9-17 13-27 8-49-23-105-29-157-15-131 35-206 176-155 306 38 99 142 159 247 144 131-20 215-143 193-268-2-10 4-21 15-23 37 142-56 288-206 310-114 17-226-48-268-156-54-141 27-294 169-332 63-17 132-7 189 26z m-180 73c9 7 21 21 30 31l3 3c7 10 7 24 0 34-8 9-20 20-29 29 28 33 60 66 94 95 9-10 19-22 30-30 9-7 21-7 30-2l2 2 1 1c11 8 26 22 34 32 8 10 6 23-1 33l0 1-36 36-3 1c-103 44-269-122-226-226l1-2 36-36 1-1c10-6 23-8 33-1z m-8 10c-6-5-15 0-17 1l0 1-35 33c-38 93 117 248 211 210l32-35c0 0 7-10 2-16-5-8-32-32-32-32 0 0-9-7-18 0-7 6-32 33-32 33 0 0-5 4-12-3-33-28-70-65-99-99-5-5-3-10-2-11l0 0c0 0 26-24 33-32 7-9 1-17 1-17 0 0-25-27-32-33z"/>
    </symbol>
  
    <symbol id="icon-search-ring" viewBox="0 0 512 512">
      <path d="m385 35c-6 9-18 13-28 8-50-24-108-29-161-15-135 36-211 181-159 314 39 101 145 163 253 147 134-20 221-146 198-274-2-11 5-22 15-25 39 146-57 296-210 319-117 18-233-50-275-160-56-144 27-302 173-341 65-17 135-7 194 27z m-15 107c3 5 3 12-2 15-4 4-11 3-15-1-22-27-59-39-93-32-33 8-62 35-71 69-9 33 2 71 26 95 31 30 84 36 120 13 36-23 53-74 38-114-2-5 0-12 6-14 6-2 12 1 14 6 19 50-1 111-46 140-19 12-41 18-63 18-26 0-52-9-73-25-23 18-44 38-64 60-2 2-5 3-8 3-2 0-5-1-7-3-4-4-5-10-1-15 20-21 41-41 64-59-27-30-37-73-27-111 12-41 47-74 87-84 42-9 88 7 115 39z m-158 58l-1 0c0 0 0-1 0-1 0 0 0 0 0 0 0 0 0-1 0-1-1 0-1 0-1 0 0 0 0-1 0-1 0 0 0 0 0 0 0-1 0-1 0-1 0 0 0-1 0-1 0 0 0 0 0-1 0-1 0-2 0-2l0 1c0-1 0-1 0-1 2-6 4-10 7-15 12-19 34-29 55-32 1 0 3 0 4 0l0 0 3 0 1 0c1 0 1 0 1 0l2 0 1 0c1 0 1 0 2 0l2 0c0 0 0 0 1 0 0 0 1 0 1 0 1 0 2 0 3 0 1 0 1 0 2 0 1 1 2 1 2 1 1 0 1 0 2 0 7 1 13 3 20 5l1 1c5 2 7 8 5 13l0 1c-2 3-5 5-9 6l-1 0c-1 0-2 0-4-1-8-3-17-4-25-5l-4 0c-3 0-5 0-8 1l-2 0c-14 2-29 9-37 22-2 2-3 5-4 8l0 1-1 1c0 0 0 1-1 2 0 1-1 2-2 2-1 1-1 1-2 1-1 1-3 1-4 1-1 0-2 0-3 0-1 0-2-1-3-1 0 0 0 0 0 0-1-1-1-1-2-2 0 0 0 0 0 0 0 0 0 0-1 0 0-1 0-1 0-1 0 0 0 0 0 0z"/>
    </symbol>
  
    <symbol id="icon-search" viewBox="0 0 512 512">
      <path d="m453 78c-50-60-135-89-212-72-76 18-141 80-162 156-19 71 0 150 49 205-42 34-82 71-118 111-7 9-7 21 1 29 4 3 9 5 14 5 5 0 11-2 15-7 36-40 76-77 118-111 40 30 88 47 137 47 40 0 81-11 116-33 84-54 122-168 86-261-4-10-16-15-26-11-10 4-15 16-11 26 28 74-3 169-71 212-67 43-165 32-223-25-46-44-65-116-48-177 16-62 70-113 132-127 62-14 132 10 172 59 7 8 20 10 29 2 8-7 9-19 2-28z m-94 17c-28-10-58-14-87-11-47 6-100 34-115 86-3 11 3 22 14 25 1 0 3 1 5 1 9 0 17-6 19-15 10-34 49-53 81-57 23-3 47 0 69 8 10 4 22-1 25-11 4-11-1-22-11-26z"/>
    </symbol>
  
    <symbol id="icon-zoom" viewBox="0 0 512 512">
      <path d="m62 78c-7 9-6 21 3 28 8 8 21 6 28-2 41-49 110-73 173-59 62 14 115 65 132 127 16 61-3 133-49 177-57 57-155 68-223 25-68-43-99-138-70-212 4-10-1-22-12-26-10-4-22 1-26 11-36 93 2 207 86 261 35 22 76 33 117 33 48 0 97-17 136-47 42 34 82 71 119 111 4 5 9 7 14 7 5 0 10-2 14-5 8-8 9-20 1-29-36-40-76-77-118-111 49-55 69-134 49-205-20-76-86-138-162-156-77-17-162 12-212 72z m175-10c-19 5-28 20-30 40l0 5 0 94-139 0c5 18 20 28 40 30l5 0 94 0 0 139c18-5 28-21 30-40l0-5 0-94 139 0c-5-19-21-28-40-30l-5 0-94 0z"/>
    </symbol>
  
    <symbol id="icon-filetype" viewBox="0 0 512 512">
      <path d="m77 464l0-416c0-9 7-16 16-16l244 0 0 64c0 18 15 32 33 32l65 0 0 48 33 0 0-64c0-4-2-8-5-11l-98-96c-3-3-7-5-11-5l-261 0c-27 0-49 21-49 48l0 416c0 27 22 48 49 48l114 0 0-32-114 0c-9 0-16-7-16-16z"/>
    </symbol>
  
    <symbol id="icon-camera" viewBox="0 0 512 512">
      <path d="m336 248c0 44-36 80-80 80-44 0-80-36-80-80 0-45 36-81 80-81 44 0 80 36 80 81z m176-99l0 197c0 20-8 38-21 52-14 14-32 21-51 21l-368 0c-19 0-37-7-51-21-13-14-21-32-21-52l0-197c0-20 8-38 21-52 14-14 32-21 51-21l43 0c16 0 30-11 35-27l6-19c5-18 21-29 39-29l122 0c18 0 34 11 39 29l6 19c5 16 19 27 35 27l43 0c40 0 72 32 72 73z m-131 99c0-70-56-127-125-127-69 0-125 57-125 127 0 69 56 126 125 126 69 0 125-57 125-126z"/>
    </symbol>
  
    <symbol id="icon-biodiversity" viewBox="0 0 512 512">
      <path d="m263 482c-64 0-110-34-113-36l18-13c3 2 74 55 176 10 103-45 128-159 129-160 0-2 17-59 18-215-21 16-62 41-116 52-20 4-40 6-60 8-64 6-126 12-174 79-43 62-38 111-31 136 3 10-2 22-11 27-2-3-44-76 25-174 54-76 126-83 189-89 21-2 39-4 58-8 75-15 123-60 124-60l17-17 0 24c1 177-19 239-19 242-1 4-28 124-141 174-33 14-63 20-89 20z m-253 8c-6 0-9-1-10-1 1-11 10-20 21-21 41-3 143-24 257-145 8-8 21-9 29-1-139 156-262 168-297 168z"/>
    </symbol>
  
    <symbol id="icon-biosecurity" viewBox="0 0 512 512">
      <path d="m416 338c-9 0-73-3-116-59 9-7 22-7 31 2 29 26 63 32 78 34 6-19 9-39 9-59 0-27-17-78-18-79l-2-6 3-3c9-10 15-23 17-36 6-47-35-86-82-76-15 3-28 11-37 22-18 21-21 48-11 70 4 12 2 24-8 32-26-32-29-82 3-118 12-14 28-23 46-28 59-13 112 31 112 89 0 19-6 37-17 53 5 15 17 55 17 80 0 26-5 51-14 74l-2 8-8 0c0 0 0 0-1 0z m-411-18c-3-15-5-30-5-45 0-117 95-211 211-211 26 0 51 4 75 13l-8 21c-22-8-44-12-67-12-104 0-188 85-188 189 0 13 1 27 4 40z m192 160c-28 0-57-6-88-24-94-58-106-143-106-147l22-3c0 1 11 78 95 130 69 39 128 16 185-6 19-7 38-15 57-20 53-15 94-8 130 6 11 5 24 23 19 34-34-17-85-35-143-18-18 5-36 12-55 19-36 14-74 29-116 29z"/>
    </symbol>
  
    <symbol id="icon-business-solutions" viewBox="0 0 512 512">
      <path d="m273 394l-109 0c-4 0-6-3-6-6l0-109c0-4 2-7 6-7l31 0c3 0 6 3 6 7 0 9 8 17 18 17 9 0 17-8 17-17 0-4 3-7 6-7l31 0c2 0 3 1 5 2 1 2 1 3 1 5l0 25c14 3 24 15 24 29 0 15-10 27-24 30l0 25c0 3-3 6-6 6z m-103-13l97 0 0-24c0-4 3-6 6-6 10 0 18-8 18-18 0-9-8-17-18-17-3 0-6-3-6-7l0-24-19 0c-3 14-15 24-29 24-15 0-27-10-30-24l-18 0 0 96z m-9-128c-3 0-5-1-8-2-8-2-14-7-18-14-3-5-4-11-4-16l-24-8c-3-1-5-4-4-7l30-105c1-3 5-5 8-4l105 30c1 1 2 2 3 3 1 2 1 3 1 5l-9 30c0 1-1 3-3 3-1 1-3 1-5 1-4-1-9-1-13 1-4 3-7 6-8 11-3 9 2 19 12 21 3 1 5 5 4 8l-9 30c0 1-1 3-3 3-1 1-3 1-5 1l-24-7c-5 10-15 16-26 16z m-44-50l23 7c2 0 3 2 4 3 1 1 1 3 0 5-1 4 0 9 2 13 2 4 6 7 10 8 9 3 19-2 22-12 1-3 4-5 8-4l23 7 5-18c-12-6-18-21-14-35 2-7 7-14 14-18 5-2 11-4 17-3l5-18-93-27z m265 191l-109 0c-3 0-6-3-6-6 0-4 3-7 6-7l103 0 0-102c0-4 3-7 6-7 4 0 6 3 6 7l0 109c0 3-3 6-6 6z m-109-109c-2 0-3-1-5-2-1-1-1-3-1-4l0-25c-14-3-24-15-24-30 0-14 10-26 24-29l0-25c0-4 2-7 6-7l109 0c3 0 6 3 6 7l0 109c0 3-3 6-6 6l-31 0c-3 0-6-3-6-6 0-10-8-18-18-18-9 0-17 8-17 18 0 3-3 6-6 6z m6-109l0 25c0 3-3 6-6 6-10 0-17 8-17 17 0 10 7 18 17 18 3 0 6 3 6 6l0 24 19 0c3-13 15-23 29-23 15 0 27 10 30 23l18 0 0-96-96 0z m-23 336c-116 0-222-80-249-198-16-66-4-135 32-193 36-59 93-99 159-114 66-16 136-4 193 32 4 2 5 6 3 10-3 3-7 4-11 2-53-33-120-44-182-30-62 14-115 53-149 108-35 55-46 119-31 181 30 130 160 211 290 181 129-30 210-160 180-290-1-4 1-8 5-9 4 0 8 2 9 6 32 137-54 275-191 307-19 5-39 7-58 7z"/>
    </symbol>
  
    <symbol id="icon-highlights" viewBox="0 0 512 512">
      <path d="m256 512c-116 0-222-80-249-198-16-66-4-135 32-193 36-59 93-99 159-114 66-16 136-4 193 32 4 2 5 6 3 10-2 3-7 4-10 2-54-33-121-45-183-30-62 14-115 53-149 107-35 55-45 120-31 182 30 130 160 211 290 181 129-30 210-160 180-290-1-4 2-8 6-9 3-1 7 2 8 6 32 137-53 275-191 307-19 5-39 7-58 7z m-88-113c-2 0-3-1-5-2-2-1-3-4-2-7l16-94-69-67c-2-2-2-5-1-7 0-3 3-5 6-5l94-14 42-86c3-5 11-5 14 0l42 86 95 14c2 0 5 2 6 5 0 2 0 5-2 7l-69 67 16 94c1 3 0 6-2 7-3 2-6 2-8 1l-85-44-85 44c-1 1-2 1-3 1z m-39-170l61 59c2 2 2 4 2 7l-14 83 75-39c2-2 4-2 6 0l75 39-14-83c0-3 0-5 2-7l61-59-84-12c-3 0-5-2-6-4l-37-76-37 76c-2 2-4 4-6 4z"/>
    </symbol>
  
    <symbol id="icon-environment" viewBox="0 0 512 512">
      <path d="m19 381l212-333c8-12 20-18 32-18 1 0 1 0 1 0 13 0 25 7 32 19l198 332c-11 6-24 3-30-8l-186-313c-4-6-9-9-14-9-6-1-11 3-15 8l-201 315c-6 10-19 13-29 7z m493 92c0 13-15 21-26 14-8-6-14-13-19-20-9-12-16-19-28-19-13 0-19 7-28 19-10 12-22 27-45 27-24 0-36-15-45-27-10-12-16-19-29-19-12 0-18 7-28 19-9 12-21 27-45 27-23 0-35-15-45-27-9-12-15-19-28-19-12 0-18 7-28 19-10 12-21 27-45 27-23 0-35-15-45-27-9-12-15-19-28-19 0-13 15-21 26-13 8 5 14 13 19 19 9 12 16 19 28 19 13 0 19-7 28-19 10-12 22-27 45-27 24 0 36 15 45 27 10 12 16 19 28 19 13 0 19-7 29-19 9-12 21-27 45-27 23 0 35 15 44 27 10 12 16 19 29 19 12 0 18-7 28-19 10-12 21-27 45-27 23 0 35 15 45 27 9 12 15 19 28 19z"/>
    </symbol>
  
    <symbol id="icon-land" viewBox="0 0 512 512">
      <path d="m488 475l-456 0c-12 0-21-9-21-20l497 0c0 11-9 20-20 20z m-39-180c-41 0-92-15-139-70-48-57-98-84-148-81-63 5-112 58-133 85-7 9-19 11-29 5 2-4 65-103 160-110 57-5 113 25 166 87 57 67 119 69 160 59 11-3 22 3 26 14-16 6-38 11-63 11z m-318 104c5-6 121-129 278-129 1 0 3 0 4 0l0 20c-1 0-3 0-4 0-117 0-213 77-248 109-9 8-22 7-30 0z m-59-219c-7-14-10-30-10-46 0-60 49-109 109-109 61 0 110 49 110 109 0 13-2 25-6 37l-20-7c3-10 5-20 5-30 0-49-40-89-89-89-49 0-89 40-89 89 0 13 3 26 9 38z"/>
    </symbol>
  
    <symbol id="icon-education" viewBox="0 0 512 512">
      <path d="m185 188c0-39 32-71 71-71 39 0 71 32 71 71m7 0l-14 0c0-35-29-64-64-64-35 0-64 29-64 64l-14 0c0-43 35-78 78-78 43 0 78 35 78 78z m-79 214c-1 0-2 0-3-1l-119-43c-2-1-4-3-4-6l-22-187c0-3 1-5 2-7 2-1 5-1 7-1l141 52c3 1 4 4 4 7l0 179c0 2-1 4-2 6-2 0-3 1-4 1z m-113-56l106 39 0-165-126-46z m113 56c-2 0-3-1-4-1-2-2-3-4-3-6l0-179c0-3 2-6 4-7l141-52c3-1 5 0 7 1 2 2 3 4 3 7l-23 187c0 3-2 5-4 6l-119 43c-1 1-2 1-2 1z m6-182l0 165 106-39 21-172z m113 131z m-216-93c0 16-13 28-28 28-16 0-28-12-28-28 0-15 12-28 28-28 15 0 28 13 28 28z m-28 35c-20 0-35-16-35-35 0-19 15-35 35-35 19 0 34 16 34 35 0 19-15 35-34 35z m0-56c-12 0-22 10-22 21 0 12 10 21 22 21 11 0 21-9 21-21 0-11-10-21-21-21z m280 21c0 16-12 28-28 28-15 0-27-12-27-28 0-15 12-28 27-28 16 0 28 13 28 28z m-28 35c-19 0-34-16-34-35 0-19 15-35 34-35 20 0 35 16 35 35 0 19-15 35-35 35z m0-56c-11 0-21 10-21 21 0 12 10 21 21 21 12 0 22-9 22-21 0-11-10-21-22-21z m-126 275c-116 0-222-80-249-198-16-66-4-135 32-193 36-59 93-99 159-114 66-16 136-4 193 32 4 2 5 6 3 10-2 3-7 4-10 2-54-33-121-45-183-30-62 14-115 53-149 107-35 55-45 120-31 182 30 130 160 211 290 181 129-30 210-160 180-290-1-4 2-8 6-9 3-1 7 2 8 6 32 137-53 275-191 307-19 5-39 7-58 7z"/>
    </symbol>
  
    <symbol id="icon-our-capabilities" viewBox="0 0 512 512">
      <path d="m249 415c-1 0-1 0-1 0-2 0-3-1-5-1-3 0-5-3-5-6 0-3 3-5 6-5 2 1 3 1 5 1 3 0 5 2 5 5 0 3-3 6-5 6z m26-1c-3 0-5-2-5-5-1-3 1-6 4-6 2 0 4-1 5-1 3 0 6 2 7 5 0 3-2 5-5 6-2 0-4 0-5 1-1 0-1 0-1 0z m-58-4c0 0-1 0-1 0-2-1-4-1-5-2-3 0-5-4-4-6 1-3 4-5 7-4 2 0 3 1 5 1 3 1 4 4 4 7-1 2-3 4-6 4z m89-3c-3 0-5-2-5-4-1-3 0-6 3-7 2-1 3-1 5-2 3-1 6 1 7 3 1 3-1 6-3 7-2 1-4 2-5 2-1 0-2 1-2 1z m-118-8c-1 0-2 0-3-1-2-1-3-1-5-2-2-2-3-5-2-8 2-2 5-3 8-2 1 1 3 2 4 2 3 2 4 5 2 8 0 2-2 3-4 3z m147-6c-2 0-4-1-5-2-2-3-1-6 2-8 1-1 3-2 4-3 3-1 6 0 8 2 1 3 1 6-2 8-2 1-3 2-5 3-1 0-2 0-2 0z m-174-11c-1 0-3 0-3-1-2-1-3-3-5-4-2-2-2-5 0-7 2-3 5-3 7-1 2 1 3 2 4 3 3 2 3 6 1 8-1 1-2 2-4 2z m199-8c-2 0-3 0-4-1-2-3-2-6 0-8 1-1 3-2 4-4 2-2 5-2 8 0 2 3 2 6-1 8-1 1-2 3-4 4 0 1-2 1-3 1z m-222-14c-1 0-3-1-4-2-1-2-2-3-3-4-2-3-2-6 1-8 2-2 6-1 7 1 1 1 2 3 4 4 1 2 1 6-1 8-1 0-3 1-4 1z m243-9c-1 0-2-1-3-1-3-2-3-5-2-8 1-1 2-3 3-4 2-3 5-3 8-2 2 2 3 5 2 8-1 1-3 3-4 4-1 2-2 3-4 3z m-260-17c-2 0-4-1-5-3-1-2-2-3-3-5-1-3 0-6 3-7 2-2 6-1 7 2 1 2 2 3 2 5 2 2 1 6-2 7-1 0-2 1-2 1z m275-11c0 0-1 0-2 0-3-2-4-5-3-8 1-1 2-3 2-4 1-2 2-3 4-3-1-2-1-3-1-5 1-1 1-3 2-5 1-3 4-4 7-3 3 0 4 4 3 6 0 2-1 4-1 6-1 1-2 3-4 3 1 2 1 3 1 5-1 2-2 3-2 5-1 2-3 3-6 3z m-287-19c-3 0-5-1-6-4 0-1-1-3-1-5-1-3 1-6 4-7 3 0 6 1 7 4 0 2 0 4 1 5 1 3-1 6-4 7 0 0-1 0-1 0z m299-24c0 0 0 0 0 0-3-1-5-3-5-6 0-2 0-4 0-6 1-3 3-5 6-5 3 1 6 3 5 6 0 2 0 4 0 6 0 3-3 5-6 5z m-305-7c-3 0-5-2-5-5-1-2-1-3-1-5 0-3 2-6 5-6 3 0 6 2 6 5 0 2 0 4 0 5 1 3-2 6-5 6 0 0 0 0 0 0z m306-25c-3 0-5-2-6-5 0-2 0-3 0-5 0-3 2-6 5-6 3 0 5 2 6 5 0 2 0 3 0 5 1 3-2 6-5 6 0 0 0 0 0 0z m-305-6c-1 0-1 0-1 0-3-1-5-4-5-6 1-2 1-4 1-6 1-3 3-5 6-4 3 0 5 3 5 6 0 2-1 3-1 5 0 3-3 5-5 5z m299-25c-2 0-5-1-5-4-1-1-1-3-2-5-1-3 1-6 3-7 3-1 6 1 7 4 1 1 2 3 2 5 1 3-1 6-4 7 0 0-1 0-1 0z m-292-6c-1 0-1 0-2 0-3-1-4-5-3-7 0-2 1-4 2-6 1-2 4-4 7-3 3 2 4 5 3 7-1 2-1 4-2 5-1 2-3 4-5 4z m280-23c-2 0-4-1-5-3-1-1-2-3-3-4-1-3 0-6 2-8 3-1 6 0 8 2 1 2 2 3 2 5 2 3 1 6-2 7 0 1-1 1-2 1z m-267-6c-1 0-1 0-2-1-3-1-4-4-2-7 1-2 2-3 3-5 1-2 5-3 7-1 3 1 4 5 2 7-1 2-2 3-3 4-1 2-3 3-5 3z m249-20c-2 0-3-1-4-2-1-2-3-3-4-4-2-2-2-6 1-8 2-2 5-1 7 1 1 1 3 2 4 4 2 2 2 6-1 8-1 0-2 1-3 1z m-230-5c-1 0-2-1-3-2-2-2-3-5-1-7 2-2 3-3 4-4 2-2 6-2 8 0 2 2 2 5 0 8-1 1-3 2-4 3-1 1-2 2-4 2z m207-17c-1 0-2 0-3-1-2-1-3-2-5-3-2-2-3-5-1-8 2-2 5-3 8-1 1 1 3 2 4 3 3 2 3 5 1 8-1 1-3 2-4 2z m-183-4c-1 0-3-1-4-2-2-3-1-6 1-8 2-1 3-2 5-3 2-2 6-1 7 2 2 2 1 6-1 7-2 1-3 2-5 3 0 1-2 1-3 1z m156-13c-1 0-2 0-3 0-1-1-3-2-4-2-3-2-4-5-3-8 1-2 5-4 7-2 2 0 4 1 5 2 3 1 4 5 3 7-1 2-3 3-5 3z m-128-2c-2 0-4-2-5-4-1-3 0-6 3-7 1-1 3-1 5-2 3-1 6 0 7 3 1 3 0 6-3 7-2 1-3 1-5 2-1 0-1 1-2 1z m98-9c0 0-1 0-1 0-2 0-3-1-5-1-3 0-5-3-4-6 0-3 3-5 6-4 2 0 4 0 6 1 2 1 4 3 4 6-1 3-3 4-6 4z m-68-1c-2 0-5-2-5-4-1-3 1-6 4-7 2 0 4-1 5-1 3 0 6 2 7 5 0 3-2 6-5 6-1 0-3 1-5 1 0 0 0 0-1 0z m37-3c0 0 0 0 0 0-2 0-4 0-6 0-3 0-5-3-5-6 0-3 2-5 5-5 2 0 4 0 6 0 3 0 5 3 5 6 0 3-2 5-5 5z m-6 404c-116 0-222-80-249-198-16-66-4-135 32-193 36-59 93-99 159-114 66-16 136-4 193 32 4 2 5 6 3 10-3 3-7 4-11 2-53-33-120-44-182-30-62 14-115 53-149 108-35 55-46 119-31 181 30 130 160 211 290 181 129-30 210-160 180-290-1-4 1-8 5-9 4 0 8 2 9 6 32 137-54 275-191 307-19 5-39 7-58 7z m-121-254c0 17-14 30-30 30-17 0-31-13-31-30 0-17 14-30 31-30 16 0 30 13 30 30z m-30 36c-20 0-36-16-36-36 0-19 16-35 36-35 19 0 35 16 35 35 0 20-16 36-35 36z m0-61c-14 0-25 11-25 25 0 14 11 25 25 25 13 0 25-11 25-25 0-14-12-25-25-25z m56 100c-13-25-31-44-55-44-25 0-44 20-58 45z m-113 7c-2 0-4-2-5-3-1-2-1-5 0-6 18-32 39-48 63-48 23 0 44 16 60 47 1 1 1 4 0 5-1 2-3 3-5 3z m58-45c-17 0-33 11-47 32l91-1c-13-20-28-31-44-31z m306 16c0 17-13 30-30 30-17 0-30-13-30-30 0-17 13-30 30-30 17 0 30 13 30 30z m-30 35c-20 0-36-16-36-35 0-20 16-35 36-35 19 0 35 15 35 35 0 19-16 35-35 35z m0-60c-14 0-25 11-25 25 0 14 11 25 25 25 14 0 25-11 25-25 0-14-11-25-25-25z m56 99c-13-24-31-43-55-43-25 0-44 20-57 44z m-112 7c-2 0-5-1-6-3-1-1-1-4 0-5 18-32 39-48 63-48 24 0 44 15 60 47 1 1 1 4 0 5-1 2-3 3-5 3z m57-44c-17 0-33 11-47 32l92-1c-13-21-29-31-45-31z m-78-256c0 17-13 30-30 30-17 0-30-13-30-30 0-17 13-30 30-30 17 0 30 13 30 30z m-30 35c-20 0-35-15-35-35 0-19 15-35 35-35 19 0 35 16 35 35 0 20-16 35-35 35z m0-60c-14 0-25 11-25 25 0 14 11 25 25 25 14 0 25-11 25-25 0-14-11-25-25-25z m56 100c-13-25-31-44-55-44-25 0-44 20-57 44z m-112 6c-2 0-4-1-5-2-2-2-2-5-1-6 18-32 39-48 63-48 24 0 44 16 60 47 1 1 1 4 0 5-1 2-3 3-5 3z m57-44c-17 0-33 11-47 32l92 0c-13-22-28-32-45-32z"/>
    </symbol>
  
    <symbol id="icon-hot-topic" viewBox="0 0 512 512">
      <path d="m256 366c-56 0-103-43-104-96-1-47 31-78 55-101 9-8 16-15 21-22 18-24 15-40 15-40-1-3 0-6 3-7 2-1 5-1 7 1 56 49 52 95 48 115 11-6 19-18 22-24 1-1 3-3 5-3 2 0 4 1 6 2 17 19 27 44 27 70 0 58-47 105-105 105z m-1-246c-2 9-6 21-16 35-6 7-14 15-23 23-23 23-52 51-51 91 1 46 42 84 91 84 51 0 92-41 92-92 0-20-7-39-18-55-7 10-20 24-36 25-2 0-4 0-5-2-3-3-2-6-1-11 3-13 11-52-33-98z m-1 246c-28 0-52-22-52-49-1-31 16-52 29-65l24-25c2-1 5-2 7-1 3 1 4 4 4 6 0 1 0 29 26 44 10 6 15 19 15 37 0 29-24 53-53 53z m1-120l-15 15c-12 12-26 30-26 56 1 20 19 36 40 36 22 0 40-18 40-40 0-8-1-21-9-25-20-12-27-30-30-42z m176 266c-1 0-2 0-3 0l-117-29c-4-1-6-5-5-9 1-3 4-6 8-5l101 25-33-55c-2-4-1-8 2-10 49-33 84-86 95-145 12-60-1-120-35-171-35-50-86-84-145-95-60-11-120 1-171 36-50 34-84 85-95 145-12 59 1 119 35 170 35 50 86 84 145 95 4 1 7 5 6 9-1 3-4 6-8 5-63-12-118-48-154-101-37-54-50-118-38-181 12-63 48-117 101-154 54-36 118-50 181-38 63 12 118 48 154 102 37 53 50 117 38 180-11 60-46 115-96 151l39 64c1 3 1 6 0 8-2 2-3 3-5 3z"/>
    </symbol>
  
    <symbol id="icon-identification" viewBox="0 0 512 512">
      <path d="m256 512c-116 0-222-80-249-198-16-66-4-135 32-193 36-59 93-99 159-114 66-16 136-4 193 32 4 2 5 6 3 10-3 3-7 4-11 2-53-33-120-44-182-30-62 14-115 53-149 108-35 55-46 119-31 181 30 130 160 211 290 181 129-30 210-160 180-290-1-4 1-8 5-9 4 0 8 2 9 6 32 137-54 275-191 307-19 5-39 7-58 7z m-145-322c-3 0-6-3-6-7l0-64c0-4 3-7 6-7l64 0c4 0 7 3 7 7 0 4-3 7-7 7l-57 0 0 57c0 4-3 7-7 7z m64 212l-64 0c-3 0-6-3-6-7l0-64c0-3 3-6 6-6 4 0 7 3 7 6l0 57 57 0c4 0 7 3 7 7 0 4-3 7-7 7z m213 0l-64 0c-4 0-7-3-7-7 0-4 3-7 7-7l57 0 0-57c0-3 3-6 7-6 3 0 6 3 6 6l0 64c1 4-2 7-6 7z m0-212c-4 0-7-3-7-7l0-57-57 0c-4 0-7-3-7-7 0-4 3-7 7-7l64 0c4 0 7 3 7 7l0 64c0 4-3 7-7 7z m-140 158c-3 0-7-3-7-7l0-57c0-4 4-7 7-7 4 0 7 3 7 7l0 57c0 4-3 7-7 7z m-5-59c-29 0-54-17-67-45-13-31-5-47-4-49l0-2 4-3 1 0c2-1 20-5 47 15 26 19 38 49 30 78l-1 2-4 4-3 0c-1 0-2 0-3 0z m-60-86c-1 4-3 16 6 35 10 23 30 37 53 37 4-22-6-44-26-59-16-12-28-13-33-13z m75 86c-2 0-3 0-4 0l-2 0-5-4-1-2c-8-29 4-59 30-78 27-20 45-16 47-15l1 0 4 3 1 2c1 2 9 18-5 49-13 28-38 45-66 45z m58-86c-5 0-16 1-32 13-20 15-30 37-25 59 22 0 42-14 52-37 9-19 7-31 6-35 0 0 0 0-1 0z"/>
    </symbol>
  
    <symbol id="icon-information-for" viewBox="0 0 512 512">
      <path d="m240 213l-31 0c-7 0-13-6-13-13 0-8 6-14 13-14l51 0c7 0 13 6 13 13l0 147 31 0c8 0 14 6 14 13 0 7-6 13-14 13l-101 0c-7 0-13-6-13-13 0-7 6-13 13-13l37 0z m12-105c3 0 7 1 10 2 3 1 5 3 8 5 2 3 4 5 5 8 1 4 2 7 2 10 0 4-1 7-2 10-1 3-3 6-5 9-3 2-5 4-8 5-3 1-7 2-10 2-4 0-7-1-10-2-3-1-6-3-8-5-3-3-5-6-6-9-1-3-2-6-2-10 0-3 1-6 2-10 2-3 3-5 6-8 2-2 5-4 8-5 3-1 6-2 10-2z m4 404c-116 0-222-80-249-198-16-66-4-135 32-193 36-59 93-99 159-114 66-16 136-4 193 32 4 2 5 6 3 10-2 3-7 4-10 2-54-33-121-45-183-30-62 14-115 53-149 107-35 55-45 120-31 182 30 130 160 211 290 181 129-30 210-160 180-290-1-4 2-8 6-9 4 0 7 2 8 6 32 137-53 275-191 307-19 5-39 7-58 7z"/>
    </symbol>
  
    <symbol id="icon-tools" viewBox="0 0 512 512">
      <path d="m256 512c-116 0-222-80-249-198-16-66-4-135 32-193 36-59 93-99 159-114 66-16 136-4 193 32 4 2 5 6 3 10-2 3-7 4-10 2-54-33-121-45-183-30-62 14-115 53-149 107-35 55-45 120-31 182 30 130 160 211 290 181 129-30 210-160 180-290-1-4 2-8 6-9 3-1 7 2 8 6 32 137-53 275-191 307-19 5-39 7-58 7z m0-92c-69 0-143-13-143-42 0-29 74-42 143-42 69 0 143 13 143 42 0 29-74 42-143 42z m0-69c-83 0-128 18-128 27 0 10 45 28 128 28 83 0 128-18 128-28 0-9-45-27-128-27z m0-252l-1 0c-53 0-96 43-96 96 0 7 1 13 2 19 0 0 7 74 95 161 88-87 94-161 94-161 2-6 2-12 2-19 1-53-43-96-96-96z m0 151c-31 0-56-25-56-56 0-31 25-56 56-56 31 0 56 25 56 56 0 31-25 56-56 56z m0 135l-5-5c-89-87-97-162-97-165-1-6-2-13-2-20 0-57 46-103 103-103l0 0c58 0 105 46 105 103 0 7-1 14-2 21 0 2-8 77-97 164z m-1-279c-48 0-88 40-88 89 0 6 0 12 2 18 0 1 7 70 87 151 80-81 87-149 87-150 2-7 2-13 2-19 0-49-40-89-89-89z m1 151c-35 0-64-28-64-63 0-35 29-64 64-64 35 0 64 29 64 64 0 35-29 63-64 63z m0-112c-27 0-49 22-49 49 0 27 22 48 49 48 27 0 49-21 49-48 0-27-22-49-49-49z"/>
    </symbol>
  
    <symbol id="icon-external-link" viewBox="0 0 512 512">
      <path d="m327 48c18 0 36 0 54 0 29 0 58 0 87 0 7 0 13 0 20 0-8-8-16-16-24-24 0 18 0 36 0 55 0 29 0 58 0 87 0 6 0 13 0 19 0 13 11 25 24 24 13 0 24-10 24-24 0-18 0-36 0-54 0-29 0-58 0-87 0-7 0-13 0-20 0-13-11-24-24-24-18 0-36 0-54 0-29 0-58 0-87 0-7 0-14 0-20 0-13 0-24 11-24 24 1 13 11 24 24 24z m-90 260c9-8 18-17 27-26 21-21 43-43 64-64 26-26 51-52 77-77 22-23 45-45 67-67 11-11 22-22 32-33 1 0 1 0 1 0 9-9 9-25 0-34-10-8-24-9-34 0-8 9-17 18-26 27-22 21-43 42-64 64-26 26-52 51-77 77-23 22-45 45-67 67-11 11-22 22-33 33 0 0 0 0 0 0-9 9-10 25 0 34 9 8 24 9 33-1z m227-16c0 18 0 36 0 54 0 28 0 56 0 84 0 7 1 15 0 23 0-2 1-5 1-7-1 4-2 7-3 10 1-2 2-4 2-5-1 3-3 6-5 9 1-2 3-3 4-5-3 3-5 6-8 8 2-1 3-3 5-4-3 2-6 4-10 6 2-1 4-2 6-3-3 2-6 2-10 3 2 0 4-1 6-1-4 1-9 1-14 1-10 0-19 0-28 0-30 0-61 0-92 0-37 0-74 0-111 0-32 0-64 0-96 0-15 0-30 0-45 0-2 0-4-1-6-1 2 0 4 1 6 1-4-1-7-1-10-3 2 1 4 2 6 3-4-2-7-4-10-6 2 1 3 3 5 4-3-2-5-5-8-8 2 2 3 3 4 5-2-3-4-6-5-9 0 1 1 3 2 5-1-3-2-6-3-10 1 2 1 5 1 7-1-5 0-10 0-15 0-9 0-19 0-28 0-30 0-61 0-92 0-37 0-74 0-111 0-32 0-64 0-96 0-15 0-30 0-45 0-2 0-4 0-6 0 2-1 4-1 6 1-3 2-7 3-10-1 2-2 4-2 6 1-4 3-7 5-10-1 2-2 3-4 5 3-3 5-5 8-8-2 2-3 3-5 4 3-2 6-4 10-5-2 0-4 1-6 2 3-1 6-2 10-3-2 1-4 1-6 1 6-1 12 0 19 0 12 0 24 0 36 0 29 0 57 0 85 0 7 0 13 0 20 0 12 0 24-11 24-24-1-13-11-24-24-24-16 0-32 0-48 0-27 0-54 0-81 0-8 0-16 0-23 0-19 0-36 7-49 20-12 12-19 29-19 46 0 4 0 8 0 11 0 17 0 34 0 51 0 25 0 50 0 75 0 29 0 57 0 86 0 26 0 53 0 79 0 20 0 39 0 58 0 11 0 23 2 34 2 12 9 25 18 33 5 5 10 9 16 12 8 3 15 5 24 6 4 1 7 1 11 1 13 0 27 0 41 0 24 0 48 0 71 0 29 0 57 0 85 0 27 0 55 0 82 0 22 0 43 0 65 0 10 0 21 0 31 0 18 0 36-7 48-20 4-5 8-10 11-16 4-8 6-15 7-24 0-3 0-5 0-8 0-21 0-42 0-63 0-25 0-50 0-76 0-4 0-9 0-13 0-12-11-24-24-24-13 1-24 11-24 24z"/>
    </symbol>
  
    <symbol id="icon-data" viewBox="0 0 512 512">
      <path d="m385 35c-6 9-18 13-28 8-50-24-108-29-161-15-135 36-211 181-159 314 39 101 145 163 253 147 134-20 221-146 198-274-2-11 5-22 15-25 39 146-57 296-210 319-117 18-233-50-275-160-56-144 27-302 173-341 65-17 135-7 194 27z m-279 126l88 226 52-92c0-3 2-6 4-8l28-49 51 49c2-1 4-1 6-1 5 0 10 4 10 9 0 2-1 4-2 6l17 16 9-13c-3-2-5-5-5-9 0-5 5-9 10-9 2 0 4 0 6 2l47-70c2-3 6-4 9-2l1 1c3 2 4 6 3 9l-1 1-77 113-80-78-17 29c1 2 1 3 1 4 0 6-5 10-10 10l1 0-66 116-46-119c-2 2-4 3-7 3-6 0-10-4-10-10 0-5 4-9 10-9 0 0 0 0 1 0l-36-93-38 58c-2 3-6 4-9 3l-1-1c-3-2-4-6-3-9l1-1z m-8 125c6 0 10 4 10 9 0 6-4 10-10 10-5 0-9-4-9-10 0-5 4-9 9-9z m197 0c6 0 10 4 10 9 0 6-4 10-10 10-5 0-9-4-9-10 0-5 4-9 9-9z m-118 0c6 0 10 4 10 9 0 6-4 10-10 10-5 0-10-4-10-10 0-5 5-9 10-9z m40 0c5 0 9 4 9 9 0 6-4 10-9 10-6 0-10-4-10-10 0-5 4-9 10-9z m197 0c5 0 9 4 9 9 0 6-4 10-9 10-6 0-10-4-10-10 0-5 4-9 10-9z"/>
    </symbol>
  
    <symbol id="icon-action-on-climate-change" viewBox="0 0 512 512">
      <path d="m315 82c8-6 9-16 2-23l-31 27 10 12z m-42 135l17 20c6 7 16 8 22 2l-26-32z m78-66l-41-5-1 17 26 2c8 1 16-6 16-14z m-193 95l10 0c23 0 44-19 48-41 3 0 6 1 9 1 33 0 61-27 61-61 0-33-28-60-61-60-22 0-42 12-52 31l-3-4c-3-3-9-3-12 0l-22 23c-11 12-26 33-25 64-1 25 21 47 47 47z m67-146c25 0 44 20 44 44 0 25-19 44-44 44-3 0-6 0-9-1-2-25-15-42-26-53l-6-6c6-16 23-28 41-28z m-78 45l16-17 15 17c10 12 23 28 22 52 0 17-16 31-33 31l-10 0c-18 0-32-14-33-31 1-24 13-40 23-52z m356 136c-6-10-16-17-27-19-11-2-22-1-32 5l-127 80c1-17-9-35-26-42l-24-10c0 0-1 0-1 0l-100-29c-1 0-100-22-159 55-1 1-2 3-2 5l-2 94c0 3 2 7 5 8l53 17c5 1 100 37 133 45 5 2 9 3 14 3 28 0 54-17 55-18l166-98c0 0 1-1 61-38 10-6 17-15 19-27 2-11 0-22-6-31z m-10 27c-3 7-6 13-12 17-23 14-58 36-60 37l-166 99c0 0-31 19-57 13-32-7-129-43-131-44l-49-16 4-85c52-67 137-47 140-47l98 27 24 10c13 6 20 21 15 34-1 2-2 5-4 7-1 1-2 2-2 4-7 6-18 9-28 5l-96-32c-4-1-9 1-10 5-1 4 1 9 5 10l88 30 7 2c10 4 22 4 33-1 5-2 10-6 14-10l148-92c12-8 27-5 35 8 4 6 6 13 4 19z m-250-270c1-9-6-16-15-18l-4 41 17 1z m-66 38l-16-20c-6-7-17-8-23-2l26 32z"/>
    </symbol>
  
    <symbol id="icon-industry" viewBox="0 0 512 512">
      <path d="m256 512c-142 0-256-114-256-256 0-142 114-256 256-256 142 0 256 114 256 256 0 142-114 256-256 256z m0-494c-132 0-238 106-238 238 0 132 106 238 238 238 132 0 238-106 238-238 1-132-106-238-238-238z m2 407c-75 0-147-44-178-113-2-4 0-10 4-12 4-2 10 0 12 4 35 75 119 118 201 99 56-13 103-53 124-106 2-5 7-7 12-5 5 2 7 7 5 12-23 58-75 103-137 117-14 3-29 4-43 4z m29-83c-23 0-46-4-67-16-44-25-109-17-132-10l-6-17c26-8 96-17 146 11 50 28 117 7 161-7 17-5 31-10 41-11l1 18c-8 1-21 5-37 10-29 9-68 22-107 22z m-16-8c-5 0-9-4-9-9l0-78c-36 1-68-20-84-56-17-37-8-58-7-60 1-2 2-4 3-5 1-1 3-2 4-3 2-1 25-6 58 20 14 11 25 24 32 38 7-14 17-27 32-38 33-25 55-20 58-20 2 0 3 1 4 3 1 1 3 3 4 5 1 2 11 23-6 61-16 35-46 56-80 56l0 78c0 4-4 8-9 8z m79-193c-6 0-20 2-39 16-25 18-36 46-31 72 27-1 52-18 64-46 10-22 8-36 6-42 1 0 0 0 0 0z m-164 0c-1 6-3 20 7 43 13 28 37 45 64 46 5-27-7-54-31-72-20-15-34-17-40-17z"/>
    </symbol>
  
    <symbol id="icon-research" viewBox="0 0 512 512">
      <path d="m256 512c-142 0-256-114-256-256 0-142 114-256 256-256 142 0 256 114 256 256 0 142-114 256-256 256z m0-494c-132 0-238 106-238 238 0 132 106 238 238 238 132 0 238-106 238-238 1-132-106-238-238-238z m36 78c-23-16-51-22-79-17-28 5-52 21-68 44-21 30-24 66-12 96-1 0-1 0-2 1l-70 34c-4 2-5 6-3 10 1 3 4 4 7 4 1 0 2 0 3-1l70-34c1 0 1-1 1-1 8 15 19 28 34 38 3 2 8 1 10-2 2-3 1-8-2-10-41-28-52-85-24-126 13-21 34-34 58-39 24-5 48 1 68 14 20 14 33 35 38 59 5 24 0 48-14 68-9 13-21 24-35 31-4 2-5 6-4 10 1 3 4 4 7 4 1 0 2 0 3-1 17-8 31-20 41-36 33-47 21-113-27-146m83 129l0-44c0-4-3-7-7-7-4 0-7 3-7 7l0 48c0 3 1 5 4 6 44 25 59 80 34 124 0 0 0 0-1 1l-158 0c-16-27-17-62 0-91 8-14 19-25 33-33 2-1 4-4 4-6l0-49c0-4-3-7-7-7-4 0-7 3-7 7l0 44c-14 9-26 22-35 36-29 50-12 115 39 145 4 3 9 5 14 7 1 0 2 0 3 0l72 0c1 0 2 0 3 0 22-9 42-25 54-46 26-50 10-112-38-142m-22 173l-69 0c-4-2-7-3-10-5-9-5-16-12-22-19l136 0c-11 11-22 19-35 24"/>
    </symbol>
  
    <symbol id="icon-restoring-biodiversity" viewBox="0 0 512 512">
      <path d="m509 245c6-56-39-104-96-102-41-73-123-120-214-111-102 10-184 91-195 192-14 130 86 236 212 239l-57 0c-8 0-15 6-15 14l0 3 214 0c0 0-6-16-30-17l-103 0c45-1 88-11 125-38-6-9-18-11-27-5-31 18-66 27-102 27-118 0-211-102-197-222 10-92 86-166 179-174 80-7 150 32 188 95-29 9-53 31-62 61-16 50 12 101 60 116 2-9-1-18-8-22-27-14-43-43-40-75 5-47 52-79 100-63 24 8 41 26 48 50 10 33-4 65-29 83 0 0-8 5-14 7 1 3 13 65 15 82l3 16c-12-24-25-21-25-21 2 7 6 15 11 23 7 16 14 33 18 47 1 4 4 7 8 7 1 0 2 0 2 0 5-1 8-5 8-11 0-3-10-92-19-136 23-12 39-37 42-65z"/>
    </symbol>
  
    <symbol id="icon-maori" viewBox="0 0 512 512">
      <path d="m256 512c-142 0-256-114-256-256 0-142 114-256 256-256 142 0 256 114 256 256 0 142-114 256-256 256z m0-494c-132 0-238 106-238 238 0 132 106 238 238 238 132 0 238-106 238-238 1-132-106-238-238-238z m162 230c-2 0-3 0-5-1l-157-77-157 77c-5 2-11 0-14-5-2-5 0-11 5-13l166-82 166 82c5 2 7 9 5 14-2 3-5 5-9 5m-299 97c-4 0-8 0-8 0l0-153c0-6 4-10 8-10 4 0 8 5 8 10l0 153c0 0-4 0-8 0m271 0c-4 0-9 0-9 0l0-153c0-6 5-10 9-10 4 0 8 5 8 10l0 153c0 0-4 0-8 0m-136-158c-4 0-8 0-8 0l0-74c0-6 4-10 8-10 4 0 8 5 8 10l0 74c0 0-3 0-8 0m183 170l-361 0c-5 0-9-4-9-9 0-5 4-9 9-9l361 0c5 0 9 4 9 9 0 5-5 9-9 9z"/>
    </symbol>
  
    <symbol id="icon-enhancing-soils-water-and-land" viewBox="0 0 512 512">
      <path d="m487 464l-465 0c-10 0-17 7-17 16l498 0c1-9-6-16-16-16z m-342-43c15 0 27-11 27-27 0-15-11-25-27-25-15 0-26 11-26 26 0 16 12 26 26 26z m0-36c6 0 11 4 11 10 0 5-4 11-11 11-5 0-10-5-10-11 1-6 5-10 10-10z m247-102l10 0c27 0 49-22 49-49 1-30-15-50-26-63l-22-24c-3-3-9-3-12 0l-21 24c-12 12-27 33-26 63 1 27 23 49 48 49z m-10-101l15-16 16 16c10 12 22 28 21 51 0 18-15 32-33 32l-10 0c-17 0-32-14-33-32 1-23 14-39 24-51z m-186 194c14 0 26-11 26-27 0-15-11-26-26-26-16 0-27 11-27 26 0 16 12 27 27 27z m0-36c5 0 10 4 10 10 0 6-4 10-10 10-6 0-11-4-11-10 0-6 5-10 11-10z m-33-49c0-18-15-31-31-31-17 0-31 14-31 31 0 17 15 31 31 31 18 0 31-14 31-31z m-46 0c0-8 7-16 15-16 8 0 15 8 15 16 0 8-7 15-15 15-8 0-15-7-15-15z m-91 14c23-27 85-92 150-90 62 2 102 46 133 82 13 13 24 26 34 34 12 9 28 17 43 23-2 7-3 16-3 24 1 26 23 48 48 48l10 0c27 0 48-22 48-48 0-4 0-8-1-12 8-1 14-4 20-6-3-8-11-13-21-11-1 0-2 0-3 1-5-15-14-26-21-35l-22-23c-3-3-9-3-12 0l-19 23c-7 7-13 15-18 25-14-6-27-13-39-22-9-7-19-18-31-31-31-34-74-80-138-86l0-38c1 0 3 0 4 0 37 0 70-23 87-60 18-40 9-61 7-63l-1-1-6-4-2 0c-2-1-25-6-60 19-16 13-28 27-35 43-7-16-18-31-35-43-34-25-58-20-60-19l-2 0-5 3 0 1c-1 2-11 24 6 63 16 37 49 60 86 60l0 37c-88 4-162 105-166 109 8 5 17 4 24-3z m395 22l15-17 16 17c10 11 22 27 21 51 0 17-15 32-33 32l-10 0c-17 0-32-15-33-32 2-25 14-40 24-51z m-198-261c21-16 36-18 43-18 1 0 1 0 2 0 2 5 4 22-7 47-14 31-41 50-72 50-6-28 7-59 34-79z m-126 30c-12-26-9-42-8-48 6 0 22 0 45 18 28 20 40 50 34 79-30 0-57-18-71-49z"/>
    </symbol>
  
    <symbol id="icon-govt" viewBox="0 0 512 512">
      <path d="m256 512c-141 0-256-115-256-256 0-141 115-256 256-256 141 0 256 115 256 256l0 3c-2 139-116 253-256 253z m0-497c-133 0-241 108-241 241 0 133 108 241 241 241 133 0 241-108 241-241l0-3c-2-132-110-238-241-238z m125 281l-237 0c-7 0-12-5-12-12l0-21c0-7 5-12 12-12l5 0 0-18c0-7 5-12 12-12l7 0 0-18c0-7 5-13 12-13l16 0 0-18c0-7 5-12 12-12l109 0c8 0 13 5 13 12l0 18 14 0c7 0 12 6 12 13l0 18 7 0c7 0 12 5 12 12l0 18 5 0c7 0 12 5 12 12l0 21c1 6-4 12-11 12z m-234-15l231 0 0-15-231 0z m17-30l196 0 0-15-196 0z m19-30l159 0 0-15-159 0z m28-31l103 0 0-15-103 0z m53-80l-42 0c-6 0-11-5-11-11l0-20c0-6 5-11 11-11l42 0c6 0 11 5 11 11l0 21c0 5-5 10-11 10z m-39-15l34 0 0-13-34 0z m175 311l-275 0c-7 0-12-6-12-12l0-99c0-7 6-12 12-12l275 0c7 0 12 6 12 12l0 99c1 6-5 12-12 12z m-273-15l270 0 0-94-270 0z m148-222l-15 0 0-94 15 0z m-115 207c-4 0-8-3-8-8l0-41c0-4 3-9 8-9 5 0 8 4 8 9l0 41c-1 5-4 8-8 8z m51 0c-4 0-8-3-8-8l0-41c0-4 3-9 8-9 5 0 8 4 8 9l0 41c-1 5-4 8-8 8z m50 0c-4 0-8-3-8-8l0-41c0-4 3-9 8-9 4 0 8 4 8 9l0 41c-1 5-4 8-8 8z m50 0c-4 0-8-3-8-8l0-41c0-4 3-9 8-9 5 0 8 4 8 9l0 41c-1 5-4 8-8 8z m51 0c-4 0-8-3-8-8l0-41c0-4 3-9 8-9 5 0 8 4 8 9l0 41c-1 5-4 8-8 8z"/>
    </symbol>
  
    <symbol id="icon-people-and-communities" viewBox="0 0 512 512">
      <path d="m256 512c-142 0-256-114-256-256 0-142 114-256 256-256 142 0 256 114 256 256 0 142-114 256-256 256z m0-494c-132 0-238 106-238 238 0 132 106 238 238 238 132 0 238-106 238-238 1-132-106-238-238-238z m191 300c-5 0-9-4-9-9 0-28-17-54-43-66-9 6-22 10-34 10-15 0-29-5-40-15-4-3-4-9-1-13 3-4 9-4 13-1 8 7 17 11 28 11 22 0 41-18 41-39 0-21-19-39-41-39-20 0-37 14-40 33-1 5-5 8-10 7-5-1-8-5-7-10 5-28 29-48 57-48 33 0 59 26 59 57 0 13-4 25-12 34 29 16 47 46 47 79 0 5-4 9-8 9z m-369 0c-5 0-9-4-9-9 0-33 18-63 47-79-7-9-11-21-11-34 0-32 27-57 59-57 28 0 51 19 57 46 1 5-2 9-7 10-5 1-9-2-10-7-4-18-20-32-39-32-22 0-41 18-41 39 0 21 19 39 41 39 8 0 16-2 23-7 4-3 10-2 12 2 3 4 2 10-2 12-10 7-21 10-33 10-12 0-24-4-33-10-27 12-44 38-44 66-2 7-6 11-10 11z m297 80c-5 0-9-4-9-9 0-42-24-79-62-96-12 9-28 14-44 14-17 0-32-5-45-15-37 17-61 54-61 96 0 5-4 9-9 9-5 0-9-4-9-9 0-47 25-88 65-109-11-13-17-30-17-48 0-42 34-75 75-75 42 0 75 34 75 75 0 18-7 35-17 48 40 21 66 63 66 109 2 6-3 10-8 10z m-115-224c-32 0-58 26-58 58 0 32 26 58 58 58 32 0 58-26 58-58 0-32-26-58-58-58z"/>
    </symbol>
  
    <symbol id="icon-people-and-the-environment" viewBox="0 0 512 512">
      <path d="m495 169c0 0-42 31-103 37-14 1-30 1-45 1-20 0-42 0-63 3-19-21-40-36-65-45 15-17 26-38 26-62 0-49-40-88-88-88-48 0-88 40-88 88 0 27 11 51 29 67-47 21-83 68-96 122 9 2 18-3 22-12 15-46 49-82 91-99 12 7 26 10 42 10 17 0 33-5 47-14 22 7 43 20 60 36-24 7-49 20-73 46-62 71-35 132-34 134 8-4 12-12 11-20-3-20-3-59 36-104 43-49 91-48 142-48 15 0 32 0 47-1 43-4 77-19 95-31-14 122-31 165-32 166 0 1-30 88-114 115-72 23-120-9-133-19 34-17 73-41 115-78-7-6-17-7-23-2-99 85-181 92-213 92-9 0-16 6-18 14 1 0 3 1 7 1 16 2 58 3 116-20 8 7 38 30 82 36 21 2 46 1 72-9 92-29 124-120 125-124 1-2 22-49 36-187l2-18z m-338 6c-39 0-71-32-71-71 0-38 32-70 71-70 39 0 70 32 70 70 0 39-31 71-70 71z"/>
    </symbol>
  
</svg>